<svg width="56" height="56" viewBox="0 0 56 56" fill="none" xmlns="http://www.w3.org/2000/svg">
<g id="adhd friendly" clip-path="url(#clip0_31_382)">
<g id="Layer_1-2">
<path id="Vector" d="M28 24.54C26.09 24.54 24.54 26.09 24.54 28C24.54 29.91 26.09 31.46 28 31.46C29.91 31.46 31.46 29.91 31.46 28C31.46 26.09 29.91 24.54 28 24.54ZM28 29.28C27.3 29.28 26.72 28.71 26.72 28C26.72 27.29 27.29 26.72 28 26.72C28.71 26.72 29.28 27.29 29.28 28C29.28 28.71 28.71 29.28 28 29.28Z" fill="#09154A"/>
<path id="Vector_2" d="M28 18.72C22.88 18.72 18.72 22.88 18.72 28C18.72 33.12 22.89 37.28 28 37.28C33.11 37.28 37.28 33.12 37.28 28C37.28 22.88 33.12 18.72 28 18.72ZM28 35.1C24.09 35.1 20.9 31.92 20.9 28C20.9 24.08 24.08 20.9 28 20.9C31.92 20.9 35.1 24.08 35.1 28C35.1 31.92 31.92 35.1 28 35.1Z" fill="#09154A"/>
<path id="Vector_3" d="M28 12.91C19.68 12.91 12.91 19.68 12.91 28C12.91 36.32 19.68 43.09 28 43.09C36.32 43.09 43.09 36.32 43.09 28C43.09 19.68 36.32 12.91 28 12.91ZM28 40.91C20.88 40.91 15.09 35.12 15.09 28C15.09 20.88 20.88 15.09 28 15.09C35.12 15.09 40.91 20.88 40.91 28C40.91 35.12 35.12 40.91 28 40.91Z" fill="#09154A"/>
</g>
</g>
<defs>
<clipPath id="clip0_31_382">
<rect width="56" height="56" fill="white"/>
</clipPath>
</defs>
</svg>
