<svg width="56" height="56" viewBox="0 0 56 56" fill="none" xmlns="http://www.w3.org/2000/svg">
<g id="black and white" clip-path="url(#clip0_30_141)">
<g id="Layer_1-2">
<path id="Vector" d="M43.54 39.4L38.04 35.11C38.39 34.2 38.67 33.21 38.67 32.07C38.67 29.17 36.74 25.94 34.59 22.6C31.66 18.06 28.34 14.17 28.28 14.1L27.95 13.75C27.78 13.57 27.54 13.46 27.28 13.47C27.03 13.47 26.79 13.6 26.63 13.79L21 21.8L15.54 17.54C15.16 17.24 14.6 17.31 14.31 17.69C14.01 18.07 14.08 18.63 14.46 18.92L20.68 23.77L36.32 35.97C36.32 35.97 36.36 36 36.37 36.01L42.44 40.74C42.6 40.87 42.79 40.93 42.98 40.93C43.24 40.93 43.5 40.81 43.67 40.59C43.97 40.21 43.9 39.65 43.52 39.36L43.54 39.4ZM27.37 15.77C28.33 16.93 30.84 20.05 33.11 23.57C35.03 26.55 36.91 29.66 36.91 32.08C36.91 32.77 36.77 33.4 36.58 33.98L22.39 22.91L27.37 15.77Z" fill="#09154A"/>
<path id="Vector_2" d="M33.71 38.44C32.65 39.38 31.72 39.8 31.65 39.83C31.4 39.96 25.37 43.08 20.4 37.2C17.53 33.8 18.36 29.97 19.56 27.36C19.76 26.92 19.56 26.4 19.13 26.19C18.69 25.98 18.17 26.19 17.96 26.62C16.54 29.7 15.58 34.23 19.06 38.34C21.84 41.63 24.98 42.5 27.52 42.5C30.34 42.5 32.41 41.43 32.42 41.42C32.47 41.4 33.6 40.9 34.88 39.76C35.24 39.44 35.28 38.88 34.96 38.52C34.64 38.16 34.08 38.12 33.72 38.44H33.71Z" fill="#09154A"/>
<path id="Vector_3" d="M26.74 37.91C26.74 37.91 26.76 37.91 26.77 37.91C27.24 37.91 27.63 37.54 27.65 37.06C27.67 36.57 27.29 36.17 26.8 36.15C23.19 36.01 22.86 32.82 22.83 32.46C22.8 31.98 22.39 31.62 21.9 31.64C21.42 31.67 21.05 32.09 21.07 32.57C21.18 34.35 22.5 37.75 26.73 37.91H26.74Z" fill="#09154A"/>
</g>
</g>
<defs>
<clipPath id="clip0_30_141">
<rect width="56" height="56" fill="white"/>
</clipPath>
</defs>
</svg>
