<svg width="31" height="29" viewBox="0 0 31 29" fill="none" xmlns="http://www.w3.org/2000/svg">
<path d="M17.3427 2.70987C17.3489 2.47568 17.3054 2.24269 17.2147 2.0246C17.1239 1.80652 16.9878 1.60777 16.8144 1.44005C16.6409 1.27234 16.4336 1.13905 16.2047 1.04805C15.9758 0.95704 15.7298 0.910156 15.4814 0.910156C15.2329 0.910156 14.987 0.95704 14.7581 1.04805C14.5291 1.13905 14.3218 1.27234 14.1484 1.44005C13.9749 1.60777 13.8388 1.80652 13.7481 2.0246C13.6573 2.24269 13.6138 2.47568 13.62 2.70987V6.22001C13.6138 6.4542 13.6573 6.6872 13.7481 6.90528C13.8388 7.12336 13.9749 7.32211 14.1484 7.48983C14.3218 7.65754 14.5291 7.79083 14.7581 7.88183C14.987 7.97284 15.2329 8.01972 15.4814 8.01972C15.7298 8.01972 15.9758 7.97284 16.2047 7.88183C16.4336 7.79083 16.6409 7.65754 16.8144 7.48983C16.9878 7.32211 17.1239 7.12336 17.2147 6.90528C17.3054 6.6872 17.3489 6.4542 17.3427 6.22001V2.70987ZM17.3427 23.7729C17.3489 23.5387 17.3054 23.3057 17.2147 23.0876C17.1239 22.8696 16.9878 22.6708 16.8144 22.5031C16.6409 22.3354 16.4336 22.2021 16.2047 22.1111C15.9758 22.0201 15.7298 21.9732 15.4814 21.9732C15.2329 21.9732 14.987 22.0201 14.7581 22.1111C14.5291 22.2021 14.3218 22.3354 14.1484 22.5031C13.9749 22.6708 13.8388 22.8696 13.7481 23.0876C13.6573 23.3057 13.6138 23.5387 13.62 23.7729V27.283C13.6322 27.7409 13.8337 28.1761 14.1814 28.4959C14.5292 28.8156 14.9957 28.9946 15.4814 28.9946C15.9671 28.9946 16.4336 28.8156 16.7813 28.4959C17.129 28.1761 17.3305 27.7409 17.3427 27.283V23.7729ZM0.588991 14.9959C0.588682 15.2265 0.63663 15.455 0.730091 15.6681C0.823551 15.8812 0.960687 16.0749 1.13364 16.238C1.3066 16.401 1.51198 16.5304 1.73802 16.6185C1.96405 16.7066 2.20631 16.7518 2.45091 16.7515H6.17356C6.42193 16.7574 6.66903 16.7164 6.90032 16.6308C7.1316 16.5453 7.34239 16.4169 7.52026 16.2534C7.69813 16.0898 7.83949 15.8943 7.936 15.6785C8.03252 15.4626 8.08224 15.2307 8.08224 14.9965C8.08224 14.7622 8.03252 14.5303 7.936 14.3144C7.83949 14.0986 7.69813 13.9031 7.52026 13.7396C7.34239 13.576 7.1316 13.4477 6.90032 13.3621C6.66903 13.2766 6.42193 13.2355 6.17356 13.2414H2.45091C2.20641 13.2411 1.96425 13.2863 1.73829 13.3743C1.51233 13.4624 1.307 13.5916 1.13406 13.7546C0.961119 13.9175 0.823958 14.111 0.730429 14.3241C0.636899 14.5371 0.588836 14.7654 0.588991 14.9959ZM24.788 13.2403C24.5397 13.2344 24.2925 13.2754 24.0613 13.361C23.83 13.4466 23.6192 13.5749 23.4413 13.7384C23.2634 13.902 23.1221 14.0975 23.0256 14.3133C22.9291 14.5292 22.8793 14.7611 22.8793 14.9953C22.8793 15.2296 22.9291 15.4615 23.0256 15.6774C23.1221 15.8932 23.2634 16.0887 23.4413 16.2523C23.6192 16.4158 23.83 16.5441 24.0613 16.6297C24.2925 16.7153 24.5397 16.7563 24.788 16.7504H28.5107C28.759 16.7563 29.0061 16.7153 29.2374 16.6297C29.4687 16.5441 29.6795 16.4158 29.8574 16.2523C30.0352 16.0887 30.1766 15.8932 30.2731 15.6774C30.3696 15.4615 30.4194 15.2296 30.4194 14.9953C30.4194 14.7611 30.3696 14.5292 30.2731 14.3133C30.1766 14.0975 30.0352 13.902 29.8574 13.7384C29.6795 13.5749 29.4687 13.4466 29.2374 13.361C29.0061 13.2754 28.759 13.2344 28.5107 13.2403H24.788ZM4.95186 5.06805C4.60273 5.39765 4.40663 5.84444 4.40663 6.31028C4.40663 6.77612 4.60273 7.22291 4.95186 7.55251L7.58674 10.037C7.93614 10.3664 8.41004 10.5515 8.90418 10.5515C9.39831 10.5515 9.87221 10.3664 10.2216 10.037C10.571 9.7075 10.7673 9.26066 10.7673 8.79474C10.7673 8.32881 10.571 7.88197 10.2216 7.55251L7.58087 5.06805C7.40836 4.90509 7.20347 4.7758 6.97791 4.68758C6.75235 4.59937 6.51056 4.55396 6.26636 4.55396C6.02217 4.55396 5.78038 4.59937 5.55482 4.68758C5.32926 4.7758 5.12437 4.90509 4.95186 5.06805ZM23.3784 19.9604C23.2083 19.7861 23.0026 19.646 22.7736 19.5486C22.5447 19.4512 22.2972 19.3984 22.0461 19.3935C21.7949 19.3885 21.5453 19.4315 21.3123 19.5199C21.0792 19.6083 20.8675 19.7401 20.6899 19.9076C20.5123 20.0751 20.3724 20.2747 20.2787 20.4945C20.185 20.7142 20.1394 20.9496 20.1446 21.1864C20.1498 21.4232 20.2058 21.6565 20.3091 21.8724C20.4124 22.0883 20.561 22.2823 20.7458 22.4426L23.3784 24.9237C23.7296 25.2428 24.1996 25.4192 24.6873 25.4152C25.175 25.4111 25.6416 25.2269 25.9868 24.9021C26.3321 24.5773 26.5285 24.1378 26.5339 23.6779C26.5392 23.218 26.3532 22.7745 26.0156 22.4426L23.3784 19.9548V19.9604ZM4.95186 24.9237C5.30142 25.2529 5.77526 25.4379 6.2693 25.4379C6.76334 25.4379 7.23719 25.2529 7.58674 24.9237L10.2216 22.4426C10.571 22.1132 10.7673 21.6663 10.7673 21.2004C10.7673 20.7345 10.571 20.2876 10.2216 19.9582C9.87221 19.6287 9.39831 19.4436 8.90418 19.4436C8.41004 19.4436 7.93614 19.6287 7.58674 19.9582L4.95186 22.4426C4.60273 22.7722 4.40663 23.219 4.40663 23.6848C4.40663 24.1507 4.60273 24.5975 4.95186 24.9271V24.9237ZM20.7458 7.54697C20.5724 7.70996 20.4348 7.90355 20.3408 8.1167C20.2467 8.32984 20.1981 8.55837 20.1977 8.78923C20.1973 9.02008 20.2452 9.24875 20.3385 9.46217C20.4319 9.67559 20.5689 9.86959 20.7417 10.0331C20.9146 10.1966 21.1199 10.3264 21.3459 10.4151C21.572 10.5037 21.8144 10.5496 22.0592 10.5499C22.304 10.5503 22.5465 10.5052 22.7729 10.4172C22.9992 10.3291 23.205 10.1999 23.3784 10.037L26.0097 7.54697C26.3387 7.21411 26.5179 6.77387 26.5096 6.31893C26.5013 5.86399 26.306 5.42984 25.9651 5.10789C25.6241 4.78593 25.1639 4.60129 24.6814 4.59283C24.199 4.58436 23.7318 4.75274 23.3784 5.06252L20.74 7.54697H20.7458Z" fill="#09154A"/>
<path d="M18.3346 10.7031C18.0231 10.7031 17.7243 10.8198 17.504 11.0276C17.2837 11.2353 17.1599 11.517 17.1599 11.8108V18.4888C17.1599 18.784 17.2843 19.0672 17.5057 19.2759C17.7271 19.4847 18.0274 19.602 18.3405 19.602C18.6536 19.602 18.9539 19.4847 19.1753 19.2759C19.3967 19.0672 19.5211 18.784 19.5211 18.4888V11.8108C19.5159 11.5166 19.3888 11.2361 19.1671 11.0291C18.9454 10.8221 18.6466 10.7051 18.3346 10.7031ZM12.8205 10.7031C12.509 10.7031 12.2102 10.8198 11.9899 11.0276C11.7696 11.2353 11.6458 11.517 11.6458 11.8108V18.4888C11.6428 18.784 11.7644 19.0683 11.9837 19.279C12.203 19.4897 12.5021 19.6097 12.8152 19.6125C13.1283 19.6153 13.4298 19.5007 13.6533 19.2939C13.8768 19.0871 14.004 18.8051 14.007 18.5098V11.8374C14.0079 11.5389 13.8837 11.2523 13.6615 11.0398C13.4393 10.8274 13.137 10.7063 12.8205 10.7031Z" fill="#09154A"/>
</svg>
