<svg width="24" height="24" viewBox="0 0 24 24" fill="none" xmlns="http://www.w3.org/2000/svg">
<path d="M12 3.25C14.3206 3.25 16.5462 4.17187 18.1872 5.81282C19.8281 7.45376 20.75 9.67936 20.75 12C20.75 14.3206 19.8281 16.5462 18.1872 18.1872C16.5462 19.8281 14.3206 20.75 12 20.75C9.67936 20.75 7.45376 19.8281 5.81282 18.1872C4.17187 16.5462 3.25 14.3206 3.25 12C3.25 9.67936 4.17187 7.45376 5.81282 5.81282C7.45376 4.17187 9.67936 3.25 12 3.25ZM12 22C14.6522 22 17.1957 20.9464 19.0711 19.0711C20.9464 17.1957 22 14.6522 22 12C22 9.34784 20.9464 6.8043 19.0711 4.92893C17.1957 3.05357 14.6522 2 12 2C9.34784 2 6.8043 3.05357 4.92893 4.92893C3.05357 6.8043 2 9.34784 2 12C2 14.6522 3.05357 17.1957 4.92893 19.0711C6.8043 20.9464 9.34784 22 12 22ZM11.375 15.75C11.375 16.0938 11.6562 16.375 12 16.375C12.3438 16.375 12.625 16.0938 12.625 15.75V12.625H15.75C16.0938 12.625 16.375 12.3438 16.375 12C16.375 11.6562 16.0938 11.375 15.75 11.375H12.625V8.25C12.625 7.90625 12.3438 7.625 12 7.625C11.6562 7.625 11.375 7.90625 11.375 8.25V11.375H8.25C7.90625 11.375 7.625 11.6562 7.625 12C7.625 12.3438 7.90625 12.625 8.25 12.625H11.375V15.75Z" fill="#002AE6"/>
</svg>
