<svg xmlns="http://www.w3.org/2000/svg" width="20" height="21" viewBox="0 0 20 21" fill="none">
  <path d="M13.333 3.83366H14.9997C15.4417 3.83366 15.8656 4.00925 16.1782 4.32181C16.4907 4.63437 16.6663 5.0583 16.6663 5.50033V17.167C16.6663 17.609 16.4907 18.0329 16.1782 18.3455C15.8656 18.6581 15.4417 18.8337 14.9997 18.8337H4.99967C4.55765 18.8337 4.13372 18.6581 3.82116 18.3455C3.5086 18.0329 3.33301 17.609 3.33301 17.167V5.50033C3.33301 5.0583 3.5086 4.63437 3.82116 4.32181C4.13372 4.00925 4.55765 3.83366 4.99967 3.83366H6.66634M7.49967 2.16699H12.4997C12.9599 2.16699 13.333 2.54009 13.333 3.00033V4.66699C13.333 5.12723 12.9599 5.50033 12.4997 5.50033H7.49967C7.03944 5.50033 6.66634 5.12723 6.66634 4.66699V3.00033C6.66634 2.54009 7.03944 2.16699 7.49967 2.16699Z" stroke="#667085" stroke-width="1.66667" stroke-linecap="round" stroke-linejoin="round"/>
</svg>
