<svg width="48" height="48" viewBox="0 0 48 48" fill="none" xmlns="http://www.w3.org/2000/svg">
<path d="M22.3047 16.5234C22.4979 15.7553 23.1833 15.1875 24 15.1875C24.8167 15.1875 25.5021 15.7553 25.6953 16.5234C25.7609 16.7869 25.9943 16.9688 26.2604 16.9688H26.9167C27.2375 16.9688 27.5 17.2359 27.5 17.5625V18.75H24H20.5V17.5625C20.5 17.2359 20.7625 16.9688 21.0833 16.9688H21.7396C22.0057 16.9688 22.2391 16.7869 22.3047 16.5234ZM24 14C22.8042 14 21.776 14.7348 21.3276 15.7812H21.0833C20.3214 15.7812 19.6724 16.2785 19.4318 16.9688H19.3333C18.0464 16.9688 17 18.0338 17 19.3438V30.625C17 31.935 18.0464 33 19.3333 33H28.6667C29.9536 33 31 31.935 31 30.625V19.3438C31 18.0338 29.9536 16.9688 28.6667 16.9688H28.5682C28.3276 16.2785 27.6786 15.7812 26.9167 15.7812H26.6724C26.224 14.7348 25.1958 14 24 14ZM28.6667 18.1562C29.312 18.1562 29.8333 18.6869 29.8333 19.3438V30.625C29.8333 31.2818 29.312 31.8125 28.6667 31.8125H19.3333C18.688 31.8125 18.1667 31.2818 18.1667 30.625V19.3438C18.1667 18.6869 18.688 18.1562 19.3333 18.1562V18.75C19.3333 19.4068 19.8547 19.9375 20.5 19.9375H24H27.5C28.1453 19.9375 28.6667 19.4068 28.6667 18.75V18.1562ZM24.5833 16.9688C24.5833 16.8113 24.5219 16.6603 24.4125 16.5489C24.3031 16.4376 24.1547 16.375 24 16.375C23.8453 16.375 23.6969 16.4376 23.5875 16.5489C23.4781 16.6603 23.4167 16.8113 23.4167 16.9688C23.4167 17.1262 23.4781 17.2772 23.5875 17.3886C23.6969 17.4999 23.8453 17.5625 24 17.5625C24.1547 17.5625 24.3031 17.4999 24.4125 17.3886C24.5219 17.2772 24.5833 17.1262 24.5833 16.9688ZM21.9583 24.0938C21.9583 23.9768 21.9357 23.861 21.8917 23.7529C21.8478 23.6449 21.7833 23.5467 21.7021 23.464C21.6208 23.3813 21.5243 23.3157 21.4182 23.2709C21.312 23.2262 21.1982 23.2031 21.0833 23.2031C20.9684 23.2031 20.8547 23.2262 20.7485 23.2709C20.6423 23.3157 20.5459 23.3813 20.4646 23.464C20.3834 23.5467 20.3189 23.6449 20.2749 23.7529C20.231 23.861 20.2083 23.9768 20.2083 24.0938C20.2083 24.2107 20.231 24.3265 20.2749 24.4346C20.3189 24.5426 20.3834 24.6408 20.4646 24.7235C20.5459 24.8062 20.6423 24.8718 20.7485 24.9166C20.8547 24.9613 20.9684 24.9844 21.0833 24.9844C21.1982 24.9844 21.312 24.9613 21.4182 24.9166C21.5243 24.8718 21.6208 24.8062 21.7021 24.7235C21.7833 24.6408 21.8478 24.5426 21.8917 24.4346C21.9357 24.3265 21.9583 24.2107 21.9583 24.0938ZM23.4167 23.5C23.0958 23.5 22.8333 23.7672 22.8333 24.0938C22.8333 24.4203 23.0958 24.6875 23.4167 24.6875H26.9167C27.2375 24.6875 27.5 24.4203 27.5 24.0938C27.5 23.7672 27.2375 23.5 26.9167 23.5H23.4167ZM23.4167 27.0625C23.0958 27.0625 22.8333 27.3297 22.8333 27.6562C22.8333 27.9828 23.0958 28.25 23.4167 28.25H26.9167C27.2375 28.25 27.5 27.9828 27.5 27.6562C27.5 27.3297 27.2375 27.0625 26.9167 27.0625H23.4167ZM21.0833 28.5469C21.3154 28.5469 21.538 28.453 21.7021 28.286C21.8662 28.119 21.9583 27.8925 21.9583 27.6562C21.9583 27.42 21.8662 27.1935 21.7021 27.0265C21.538 26.8595 21.3154 26.7656 21.0833 26.7656C20.8513 26.7656 20.6287 26.8595 20.4646 27.0265C20.3005 27.1935 20.2083 27.42 20.2083 27.6562C20.2083 27.8925 20.3005 28.119 20.4646 28.286C20.6287 28.453 20.8513 28.5469 21.0833 28.5469Z" fill="#475467"/>
</svg>
