<svg width="48" height="48" viewBox="0 0 48 48" fill="none" xmlns="http://www.w3.org/2000/svg">
<path d="M22.3047 17.5234C22.4979 16.7553 23.1833 16.1875 24 16.1875C24.8167 16.1875 25.5021 16.7553 25.6953 17.5234C25.7609 17.7869 25.9943 17.9688 26.2604 17.9688H26.9167C27.2375 17.9688 27.5 18.2359 27.5 18.5625V19.75H24H20.5V18.5625C20.5 18.2359 20.7625 17.9688 21.0833 17.9688H21.7396C22.0057 17.9688 22.2391 17.7869 22.3047 17.5234ZM24 15C22.8042 15 21.776 15.7348 21.3276 16.7812H21.0833C20.3214 16.7812 19.6724 17.2785 19.4318 17.9688H19.3333C18.0464 17.9688 17 19.0338 17 20.3438V31.625C17 32.935 18.0464 34 19.3333 34H28.6667C29.9536 34 31 32.935 31 31.625V20.3438C31 19.0338 29.9536 17.9688 28.6667 17.9688H28.5682C28.3276 17.2785 27.6786 16.7812 26.9167 16.7812H26.6724C26.224 15.7348 25.1958 15 24 15ZM28.6667 19.1562C29.312 19.1562 29.8333 19.6869 29.8333 20.3438V31.625C29.8333 32.2818 29.312 32.8125 28.6667 32.8125H19.3333C18.688 32.8125 18.1667 32.2818 18.1667 31.625V20.3438C18.1667 19.6869 18.688 19.1562 19.3333 19.1562V19.75C19.3333 20.4068 19.8547 20.9375 20.5 20.9375H24H27.5C28.1453 20.9375 28.6667 20.4068 28.6667 19.75V19.1562ZM24.5833 17.9688C24.5833 17.8113 24.5219 17.6603 24.4125 17.5489C24.3031 17.4376 24.1547 17.375 24 17.375C23.8453 17.375 23.6969 17.4376 23.5875 17.5489C23.4781 17.6603 23.4167 17.8113 23.4167 17.9688C23.4167 18.1262 23.4781 18.2772 23.5875 18.3886C23.6969 18.4999 23.8453 18.5625 24 18.5625C24.1547 18.5625 24.3031 18.4999 24.4125 18.3886C24.5219 18.2772 24.5833 18.1262 24.5833 17.9688ZM27.912 24.3256C28.138 24.0955 28.138 23.717 27.912 23.4869C27.6859 23.2568 27.3141 23.2568 27.088 23.4869L22.8333 27.8176L20.912 25.8619C20.6859 25.6318 20.3141 25.6318 20.088 25.8619C19.862 26.092 19.862 26.4705 20.088 26.7006L22.4214 29.0756C22.6474 29.3057 23.0193 29.3057 23.2453 29.0756L27.912 24.3256Z" fill="#667085"/>
</svg>
