<svg width="56" height="56" viewBox="0 0 56 56" fill="none" xmlns="http://www.w3.org/2000/svg">
<g id="cognitive disability" clip-path="url(#clip0_31_405)">
<g id="Layer_1-2">
<path id="Vector" d="M40.55 26.38C39.01 24.57 38.16 22.16 38.16 22.15C36.4 16.88 31.75 13.69 26.3 14.02C21.72 14.3 16.32 16.95 14.91 23.55C13.98 27.92 16.06 31.41 17.39 33.1C17.85 33.68 18.1 34.39 18.1 35.09V41C18.1 41.55 18.55 42 19.1 42C19.65 42 20.1 41.55 20.1 41V35.09C20.1 33.95 19.7 32.8 18.96 31.87C17.85 30.45 16.1 27.55 16.86 23.98C18.04 18.47 22.57 16.26 26.42 16.02C31 15.74 34.77 18.33 36.26 22.79C36.3 22.9 37.23 25.56 39.02 27.67C39.25 27.94 39.35 28.29 39.3 28.63C39.27 28.83 39.18 29.1 38.89 29.29C38.47 29.56 37.9 29.73 37.21 29.77C36.68 29.8 36.28 30.24 36.28 30.77V33.52C36.28 34.68 35.33 35.63 34.17 35.63H30.27C29.72 35.63 29.27 36.08 29.27 36.63V40.99C29.27 41.54 29.72 41.99 30.27 41.99C30.82 41.99 31.27 41.54 31.27 40.99V37.63H34.17C36.44 37.63 38.28 35.79 38.28 33.52V31.64C38.93 31.51 39.5 31.28 39.99 30.96C40.7 30.5 41.17 29.77 41.29 28.91C41.42 28 41.15 27.08 40.55 26.37V26.38Z" fill="#09154A"/>
<path id="Vector_2" d="M30.21 25.79C30.81 25.82 31.39 25.67 31.92 25.35C32.7 24.87 33.21 24.08 33.31 23.18C33.45 21.94 33.02 21.17 32.63 20.75C32.08 20.15 31.37 19.93 30.87 19.85C30.03 18.84 28.67 18.58 27.17 19.16C25.7 18.28 24.33 18.06 23.11 18.49C21.57 19.04 20.81 20.48 20.54 21.1C19.53 21.99 19.35 22.87 19.39 23.47C19.46 24.56 20.26 25.31 20.73 25.66C21.21 26.77 21.95 27.26 22.51 27.48C23.1 27.71 23.7 27.73 24.22 27.66V29.48C24.22 30.03 24.67 30.48 25.22 30.48C25.77 30.48 26.22 30.03 26.22 29.48V26.33C26.22 25.98 26.04 25.66 25.74 25.48C25.44 25.3 25.07 25.29 24.76 25.44C24.52 25.56 23.78 25.83 23.24 25.62C23.12 25.57 22.76 25.43 22.5 24.68C22.42 24.46 22.27 24.27 22.06 24.15C21.87 24.04 21.41 23.65 21.39 23.33C21.38 23.11 21.6 22.81 22 22.49C22.15 22.37 22.27 22.2 22.33 22.02C22.33 22.01 22.78 20.72 23.8 20.37C24.47 20.14 25.33 20.34 26.34 20.99C26.76 21.26 27.27 21.3 27.71 21.1C28.3 20.83 29.09 20.65 29.45 21.29C29.63 21.6 29.97 21.8 30.33 21.8C30.47 21.8 30.94 21.86 31.16 22.11C31.31 22.28 31.37 22.57 31.32 22.96C31.29 23.24 31.12 23.49 30.87 23.65C30.62 23.81 30.32 23.84 30 23.72C29.61 23.57 29.17 23.62 28.82 23.85C28.45 24.09 28.21 24.5 28.19 24.94C28.19 25.07 28.19 25.21 28.19 25.35C28.16 25.35 28.13 25.35 28.09 25.35C27.54 25.3 27.05 25.69 26.99 26.23C26.93 26.78 27.33 27.27 27.87 27.33C28.18 27.36 29.11 27.47 29.71 26.88C30.06 26.55 30.16 26.15 30.19 25.8L30.21 25.79Z" fill="#09154A"/>
</g>
</g>
<defs>
<clipPath id="clip0_31_405">
<rect width="56" height="56" fill="white"/>
</clipPath>
</defs>
</svg>
