<svg width="56" height="56" viewBox="0 0 56 56" fill="none" xmlns="http://www.w3.org/2000/svg">
<g id="color blind" clip-path="url(#clip0_30_152)">
<g id="Layer_1-2">
<path id="Vector" d="M46.62 41.28L39.25 35.52C40.16 34.7 40.97 33.78 41.65 32.76C42.73 31.16 43.45 29.62 43.78 28.84C44.01 28.3 44.01 27.67 43.75 27.14C42.85 25.21 37.87 15.57 28.19 15.57C24.46 15.57 20.84 16.82 18.11 19.01L10.61 13.15C10.17 12.81 9.55001 12.89 9.21001 13.32C8.87001 13.76 8.95001 14.38 9.38001 14.72L16.7 20.44C15.83 21.24 15.06 22.12 14.41 23.1C13.33 24.71 12.61 26.24 12.28 27.02C12.05 27.56 12.06 28.18 12.31 28.72C13.21 30.65 18.19 40.29 27.87 40.29C28.21 40.29 28.54 40.27 28.88 40.24C28.9 40.24 28.92 40.24 28.94 40.24C28.96 40.24 28.98 40.23 29.01 40.23C32.28 40.01 35.4 38.85 37.84 36.94L45.41 42.85C45.59 42.99 45.81 43.06 46.03 43.06C46.33 43.06 46.62 42.93 46.82 42.68C47.16 42.24 47.08 41.62 46.65 41.28H46.62ZM41.94 28.05C41.63 28.76 40.97 30.17 39.98 31.65C39.32 32.63 38.53 33.5 37.63 34.27L34.17 31.57C34.79 30.49 35.13 29.29 35.13 28.02C35.13 24.09 31.93 20.89 28 20.89C26.13 20.89 24.38 21.61 23.06 22.89L19.73 20.29C22.06 18.57 25.08 17.59 28.19 17.59C36.65 17.59 41.13 26.26 41.94 28.07V28.05ZM25.04 24.27C25.04 24.22 25.08 24.18 25.13 24.18C25.18 24.18 25.22 24.22 25.22 24.27C25.22 24.37 25.03 24.37 25.03 24.27H25.04ZM26.6 23.07C27.05 22.94 27.52 22.87 28 22.87C30.83 22.87 33.13 25.17 33.13 28C33.13 28.82 32.93 29.6 32.57 30.31L26.51 25.57C26.83 25.23 27.03 24.77 27.03 24.27C27.03 23.81 26.86 23.4 26.59 23.07H26.6ZM29.24 38.21L14.64 26.67C14.91 26.13 15.26 25.49 15.68 24.81L31.97 37.69C31.09 37.94 30.17 38.12 29.24 38.21ZM15 29.51L25.86 38.09C20.21 37.13 16.63 32.32 15 29.51ZM34.16 36.88L16.84 23.19C17.28 22.65 17.77 22.15 18.3 21.69L36.19 35.67C35.56 36.13 34.88 36.53 34.15 36.88H34.16Z" fill="#09154A"/>
</g>
</g>
<defs>
<clipPath id="clip0_30_152">
<rect width="56" height="56" fill="white"/>
</clipPath>
</defs>
</svg>
