<svg width="56" height="56" viewBox="0 0 56 56" fill="none" xmlns="http://www.w3.org/2000/svg">
<g id="compare arrows" clip-path="url(#clip0_38_70)">
<g id="Layer_1-2">
<path id="Vector" d="M42 23.6H34.15V20.14C34.15 19.64 33.61 19.33 33.18 19.58L25.61 23.95C25.18 24.2 25.18 24.82 25.61 25.07L33.18 29.44C33.61 29.69 34.15 29.38 34.15 28.88V25.43H42C42.51 25.43 42.92 25.02 42.92 24.51C42.92 24 42.51 23.59 42 23.59V23.6Z" fill="#09154A"/>
<path id="Vector_2" d="M22.82 26.55C22.39 26.3 21.85 26.61 21.85 27.11V30.57H14C13.49 30.57 13.08 30.98 13.08 31.49C13.08 32 13.49 32.41 14 32.41H21.85V35.86C21.85 36.36 22.39 36.67 22.82 36.42L30.39 32.05C30.82 31.8 30.82 31.18 30.39 30.93L22.82 26.56V26.55Z" fill="#09154A"/>
</g>
</g>
<defs>
<clipPath id="clip0_38_70">
<rect width="56" height="56" fill="white"/>
</clipPath>
</defs>
</svg>
