<svg width="56" height="56" viewBox="0 0 56 56" fill="none" xmlns="http://www.w3.org/2000/svg">
<g id="contrast modes" clip-path="url(#clip0_30_103)">
<g id="Layer_1-2">
<path id="Vector" d="M41.98 26.01L29.99 14.02C28.92 12.95 27.07 12.95 26 14.02L14.01 26.01C13.48 26.54 13.18 27.25 13.18 28C13.18 28.75 13.47 29.46 14.01 29.99L26 41.98C26.53 42.51 27.24 42.81 27.99 42.81C28.74 42.81 29.45 42.52 29.98 41.98L41.97 29.99C42.5 29.46 42.8 28.75 42.8 28C42.8 27.25 42.51 26.54 41.97 26.01H41.98ZM40.84 28.85L28.85 40.84C28.62 41.07 28.31 41.19 28 41.19V14.81C28.31 14.81 28.61 14.93 28.85 15.16L40.84 27.15C41.31 27.62 41.31 28.38 40.84 28.85Z" fill="#09154A"/>
</g>
</g>
<defs>
<clipPath id="clip0_30_103">
<rect width="56" height="56" fill="white"/>
</clipPath>
</defs>
</svg>
