<svg width="56" height="56" viewBox="0 0 56 56" fill="none" xmlns="http://www.w3.org/2000/svg">
<g id="contacts" clip-path="url(#clip0_38_62)">
<g id="Layer_1-2">
<path id="Vector" d="M36.99 18.41H19.02C17.5 18.41 16.26 19.65 16.26 21.17V34.83C16.26 36.35 17.5 37.59 19.02 37.59H36.99C38.51 37.59 39.75 36.35 39.75 34.83V21.17C39.75 19.65 38.51 18.41 36.99 18.41ZM37.91 34.83C37.91 35.34 37.5 35.75 36.99 35.75H19.02C18.51 35.75 18.1 35.33 18.1 34.83V21.17C18.1 20.66 18.51 20.25 19.02 20.25H36.99C37.5 20.25 37.91 20.67 37.91 21.17V34.83Z" fill="#09154A"/>
<path id="Vector_2" d="M28.04 28.13C29.91 28.13 31.43 26.61 31.43 24.74C31.43 22.87 29.91 21.35 28.04 21.35C26.17 21.35 24.65 22.87 24.65 24.74C24.65 26.61 26.17 28.13 28.04 28.13ZM28.04 23.19C28.89 23.19 29.59 23.89 29.59 24.74C29.59 25.59 28.89 26.29 28.04 26.29C27.19 26.29 26.49 25.59 26.49 24.74C26.49 23.89 27.19 23.19 28.04 23.19Z" fill="#09154A"/>
<path id="Vector_3" d="M32.07 29.55C29.47 28.64 26.61 28.64 23.99 29.55C22.65 30.02 21.75 31.28 21.75 32.7V33.06C21.75 33.8 22.35 34.39 23.08 34.39H32.96C33.69 34.39 34.29 33.79 34.29 33.06V32.69C34.29 31.28 33.4 30.02 32.07 29.56V29.55ZM23.59 32.55C23.65 31.98 24.03 31.48 24.61 31.28C26.82 30.51 29.25 30.51 31.46 31.28C32.01 31.47 32.39 31.97 32.45 32.54H23.6L23.59 32.55Z" fill="#09154A"/>
<path id="Vector_4" d="M20.18 16.26H35.82C36.77 16.26 37.54 15.49 37.54 14.54V14C37.54 13.49 37.13 13.08 36.62 13.08C36.11 13.08 35.7 13.49 35.7 14V14.42H20.3V14C20.3 13.49 19.89 13.08 19.38 13.08C18.87 13.08 18.46 13.49 18.46 14V14.54C18.46 15.49 19.23 16.26 20.18 16.26Z" fill="#09154A"/>
<path id="Vector_5" d="M35.82 39.74H20.18C19.23 39.74 18.46 40.51 18.46 41.46V42C18.46 42.51 18.87 42.92 19.38 42.92C19.89 42.92 20.3 42.51 20.3 42V41.58H35.7V42C35.7 42.51 36.11 42.92 36.62 42.92C37.13 42.92 37.54 42.51 37.54 42V41.46C37.54 40.51 36.77 39.74 35.82 39.74Z" fill="#09154A"/>
</g>
</g>
<defs>
<clipPath id="clip0_38_62">
<rect width="56" height="56" fill="white"/>
</clipPath>
</defs>
</svg>
