<svg width="20" height="21" viewBox="0 0 20 21" fill="none" xmlns="http://www.w3.org/2000/svg">
<g clip-path="url(#clip0_3355_14903)">
<path d="M15.5714 14.25H9.5C8.82835 14.25 8.28571 13.6914 8.28571 13V3C8.28571 2.30859 8.82835 1.75 9.5 1.75H13.602C13.7614 1.75 13.917 1.81641 14.0308 1.93359L16.6074 4.58594C16.7212 4.70312 16.7857 4.86328 16.7857 5.02734V13C16.7857 13.6914 16.2431 14.25 15.5714 14.25ZM17.465 3.69922L14.8922 1.05078C14.5507 0.699219 14.0877 0.5 13.6058 0.5H9.5C8.16049 0.5 7.07143 1.62109 7.07143 3V13C7.07143 14.3789 8.16049 15.5 9.5 15.5H15.5714C16.9109 15.5 18 14.3789 18 13V5.02734C18 4.53125 17.8065 4.05469 17.465 3.70312V3.69922ZM3.42857 5.5C2.08906 5.5 1 6.62109 1 8V18C1 19.3789 2.08906 20.5 3.42857 20.5H9.5C10.8395 20.5 11.9286 19.3789 11.9286 18V16.75H10.7143V18C10.7143 18.6914 10.1717 19.25 9.5 19.25H3.42857C2.75692 19.25 2.21429 18.6914 2.21429 18V8C2.21429 7.30859 2.75692 6.75 3.42857 6.75H5.85714V5.5H3.42857Z" fill="#344054"/>
</g>
<defs>
<clipPath id="clip0_3355_14903">
<rect width="20" height="20" fill="white" transform="translate(0 0.5)"/>
</clipPath>
</defs>
</svg>
