<svg width="56" height="56" viewBox="0 0 56 56" fill="none" xmlns="http://www.w3.org/2000/svg">
<g id="dark mode" clip-path="url(#clip0_30_121)">
<g id="Layer_1-2">
<path id="Vector" d="M39.98 39.19C39.87 38.78 39.51 38.49 39.09 38.46C32.31 37.99 27.01 32.3 27.01 25.51C27.01 21.29 29.08 17.31 32.56 14.87C32.91 14.63 33.06 14.19 32.95 13.78C32.84 13.37 32.48 13.08 32.06 13.05H31.94C31.63 13.02 31.32 13 31.01 13C22.74 13 16.01 19.73 16.01 28C16.01 36.27 22.74 43 31.01 43C34.1 43 37.08 42.06 39.61 40.28C39.96 40.04 40.11 39.6 40 39.19H39.98ZM30.99 41C23.82 41 17.99 35.17 17.99 28C17.99 21.44 22.87 16 29.2 15.12C26.54 17.89 25.01 21.61 25.01 25.5C25.01 32.34 29.68 38.21 36.07 39.96C34.47 40.64 32.76 40.99 31 40.99L30.99 41Z" fill="#09154A"/>
</g>
</g>
<defs>
<clipPath id="clip0_30_121">
<rect width="56" height="56" fill="white"/>
</clipPath>
</defs>
</svg>
