<svg width="56" height="56" viewBox="0 0 56 56" fill="none" xmlns="http://www.w3.org/2000/svg">
<g id="devices" clip-path="url(#clip0_38_92)">
<g id="Layer_1-2">
<path id="Vector" d="M41 37.24H35.52C34.46 37.24 33.6 36.38 33.6 35.32V25.34C33.6 24.28 34.46 23.42 35.52 23.42H41C42.06 23.42 42.92 24.28 42.92 25.34V35.32C42.92 36.38 42.06 37.24 41 37.24ZM35.52 25.25C35.52 25.25 35.43 25.29 35.43 25.34V35.32C35.43 35.32 35.47 35.41 35.52 35.41H41C41 35.41 41.09 35.37 41.09 35.32V25.34C41.09 25.34 41.05 25.25 41 25.25H35.52Z" fill="#09154A"/>
<path id="Vector_2" d="M17.47 36.89C16.96 36.89 16.55 36.48 16.55 35.97V21.35C16.55 19.93 17.71 18.77 19.13 18.77H40.34C40.85 18.77 41.26 19.18 41.26 19.69C41.26 20.2 40.85 20.61 40.34 20.61H19.13C18.72 20.61 18.39 20.94 18.39 21.35V35.97C18.39 36.48 17.98 36.89 17.47 36.89Z" fill="#09154A"/>
<path id="Vector_3" d="M30.56 36.89H14C13.49 36.89 13.08 36.4801 13.08 35.9701C13.08 35.4601 13.49 35.05 14 35.05H30.56C31.07 35.05 31.48 35.4601 31.48 35.9701C31.48 36.4801 31.07 36.89 30.56 36.89Z" fill="#09154A"/>
</g>
</g>
<defs>
<clipPath id="clip0_38_92">
<rect width="56" height="56" fill="white"/>
</clipPath>
</defs>
</svg>
