<svg width="38" height="27" viewBox="0 0 38 27" fill="none" xmlns="http://www.w3.org/2000/svg">
<path d="M0.509888 13.676C0.510679 11.6035 1.04939 9.56487 2.07592 7.74964C3.10246 5.93442 4.58348 4.40153 6.38129 3.29352C8.1791 2.18552 10.2353 1.53837 12.3587 1.41224C14.4822 1.28611 16.6039 1.68511 18.5265 2.57213C20.449 1.68385 22.5709 1.28381 24.6948 1.40924C26.8187 1.53467 28.8754 2.1815 30.6737 3.28952C32.472 4.39754 33.9533 5.93074 34.9797 7.74643C36.0062 9.56212 36.5445 11.6013 36.5445 13.6741C36.5445 15.747 36.0062 17.7861 34.9797 19.6018C33.9533 21.4175 32.472 22.9507 30.6737 24.0588C28.8754 25.1668 26.8187 25.8136 24.6948 25.939C22.5709 26.0645 20.449 25.6644 18.5265 24.7761C16.6042 25.6641 14.4826 26.0639 12.3591 25.9384C10.2356 25.8129 8.17916 25.1662 6.38113 24.0584C4.58311 22.9507 3.10192 21.4178 2.07538 19.6025C1.04884 17.7872 0.51031 15.7485 0.509888 13.676ZM13.1215 24.2021C14.3016 24.2118 15.4733 24.0093 16.5779 23.6048C14.9517 22.4723 13.6264 20.978 12.712 19.2463C11.7977 17.5145 11.3207 15.5952 11.3207 13.6478C11.3207 11.7004 11.7977 9.78111 12.712 8.04936C13.6264 6.3176 14.9517 4.82339 16.5779 3.69084C15.0944 3.20873 13.5211 3.04609 11.9668 3.21415C10.4124 3.38221 8.91408 3.87697 7.57519 4.66425C6.23631 5.45154 5.0888 6.51257 4.21194 7.77408C3.33508 9.03558 2.74977 10.4675 2.49643 11.9709C2.2431 13.4743 2.32778 15.0133 2.74462 16.4817C3.16147 17.9501 3.90054 19.3129 4.9108 20.4758C5.92105 21.6388 7.17841 22.5743 8.59601 23.2176C10.0136 23.861 11.5577 24.1969 13.1215 24.2021ZM23.3172 10.1656H13.7347C13.4251 11.0147 13.232 11.9 13.1605 12.7984H23.8913C23.7953 11.9036 23.6028 11.0212 23.3172 10.1656ZM13.7347 17.1863H23.3172C23.6028 16.3308 23.7953 15.4483 23.8913 14.5536H13.1605C13.232 15.452 13.4251 16.3372 13.7347 17.1863ZM18.5265 22.797C20.1692 21.8712 21.5339 20.5418 22.4842 18.9415H14.5689C15.5192 20.5418 16.8838 21.8712 18.5265 22.797ZM22.4842 8.41046C21.5338 6.80989 20.1692 5.48009 18.5265 4.55374C16.8839 5.48009 15.5193 6.80989 14.5689 8.41046H22.4842ZM23.9315 3.1474C22.7564 3.14627 21.589 3.33189 20.4752 3.69696C22.1014 4.82951 23.4267 6.32372 24.341 8.05547C25.2554 9.78723 25.7324 11.7065 25.7324 13.6539C25.7324 15.6014 25.2554 17.5207 24.341 19.2524C23.4267 20.9842 22.1014 22.4784 20.4752 23.6109C21.5798 24.0154 22.7515 24.2179 23.9315 24.2082C26.7985 24.2082 29.5481 23.0987 31.5753 21.1238C33.6026 19.1488 34.7415 16.4702 34.7415 13.6772C34.7415 10.8842 33.6026 8.20559 31.5753 6.23064C29.5481 4.25569 26.7985 3.1474 23.9315 3.1474Z" fill="#09154A" stroke="#09154A"/>
</svg>
