<svg width="56" height="56" viewBox="0 0 56 56" fill="none" xmlns="http://www.w3.org/2000/svg">
<g id="drag indicator" clip-path="url(#clip0_38_7)">
<g id="Layer_1-2">
<path id="Vector" d="M22.6 21.46C24.1077 21.46 25.33 20.2377 25.33 18.73C25.33 17.2223 24.1077 16 22.6 16C21.0923 16 19.87 17.2223 19.87 18.73C19.87 20.2377 21.0923 21.46 22.6 21.46Z" fill="#09154A"/>
<path id="Vector_2" d="M33.4 21.46C34.9077 21.46 36.13 20.2377 36.13 18.73C36.13 17.2223 34.9077 16 33.4 16C31.8923 16 30.67 17.2223 30.67 18.73C30.67 20.2377 31.8923 21.46 33.4 21.46Z" fill="#09154A"/>
<path id="Vector_3" d="M22.6 30.73C24.1077 30.73 25.33 29.5078 25.33 28C25.33 26.4923 24.1077 25.27 22.6 25.27C21.0923 25.27 19.87 26.4923 19.87 28C19.87 29.5078 21.0923 30.73 22.6 30.73Z" fill="#09154A"/>
<path id="Vector_4" d="M33.4 30.73C34.9077 30.73 36.13 29.5078 36.13 28C36.13 26.4923 34.9077 25.27 33.4 25.27C31.8923 25.27 30.67 26.4923 30.67 28C30.67 29.5078 31.8923 30.73 33.4 30.73Z" fill="#09154A"/>
<path id="Vector_5" d="M22.6 40C24.1077 40 25.33 38.7777 25.33 37.27C25.33 35.7622 24.1077 34.54 22.6 34.54C21.0923 34.54 19.87 35.7622 19.87 37.27C19.87 38.7777 21.0923 40 22.6 40Z" fill="#09154A"/>
<path id="Vector_6" d="M33.4 40C34.9077 40 36.13 38.7777 36.13 37.27C36.13 35.7622 34.9077 34.54 33.4 34.54C31.8923 34.54 30.67 35.7622 30.67 37.27C30.67 38.7777 31.8923 40 33.4 40Z" fill="#09154A"/>
</g>
</g>
<defs>
<clipPath id="clip0_38_7">
<rect width="56" height="56" fill="white"/>
</clipPath>
</defs>
</svg>
