<svg width="56" height="56" viewBox="0 0 56 56" fill="none" xmlns="http://www.w3.org/2000/svg">
<g id="dyslexia friendly" clip-path="url(#clip0_38_27)">
<g id="Layer_1-2">
<path id="Vector" d="M24.67 19.44C22.72 18.93 17.37 18.18 14.09 18.15C14.09 18.15 14.27 29.12 13 37.78C13 37.78 22.7 38.34 25.3 36.02C27.9 33.7 28.64 31.72 28.92 27.27C29.21 22.82 26.62 19.95 24.67 19.44ZM26.7 28.22C26.03 33.83 22.04 34.09 22.04 34.09L15.76 34.28L16.72 20.29C19.39 20.14 21.61 20.59 22.88 20.91C24.15 21.23 27.37 22.6 26.7 28.22Z" fill="#09154A"/>
<path id="Vector_2" d="M30.66 23.99L34.88 31.12L28.74 37.6L32.3 37.32L36.02 31.96L38.73 37.6H42.21L37.29 30.79L43 24.04H40.84L36.07 30.1L32.77 24.09L30.66 23.99Z" fill="#09154A"/>
</g>
</g>
<defs>
<clipPath id="clip0_38_27">
<rect width="56" height="56" fill="white"/>
</clipPath>
</defs>
</svg>
