<svg width="15" height="16" viewBox="0 0 15 16" fill="none" xmlns="http://www.w3.org/2000/svg">
<path d="M3.54839 14.1875H4.70968V15H3.54839C2.69435 15 2 14.2713 2 13.375V3.625C2 2.72871 2.69435 2 3.54839 2H7.325C7.63226 2 7.92742 2.12949 8.14516 2.35801L10.9492 5.29824C11.1669 5.52676 11.2903 5.83652 11.2903 6.15898V9.71875H10.5161V6.875H7.80645C7.16532 6.875 6.64516 6.3291 6.64516 5.65625V2.8125H3.54839C3.12016 2.8125 2.77419 3.17559 2.77419 3.625V13.375C2.77419 13.8244 3.12016 14.1875 3.54839 14.1875ZM10.504 6.0625C10.4871 5.99141 10.4532 5.92539 10.4024 5.87461L7.59839 2.93184C7.54758 2.87852 7.4871 2.84297 7.41935 2.8252V5.65625C7.41935 5.87969 7.59355 6.0625 7.80645 6.0625H10.504ZM6.25806 10.9375H7.03226C7.77984 10.9375 8.3871 11.5748 8.3871 12.3594C8.3871 13.1439 7.77984 13.7812 7.03226 13.7812H6.64516V14.5938C6.64516 14.8172 6.47097 15 6.25806 15C6.04516 15 5.87097 14.8172 5.87097 14.5938V13.375V11.3438C5.87097 11.1203 6.04516 10.9375 6.25806 10.9375ZM7.03226 12.9688C7.35403 12.9688 7.6129 12.6971 7.6129 12.3594C7.6129 12.0217 7.35403 11.75 7.03226 11.75H6.64516V12.9688H7.03226ZM9.35484 10.9375H10.129C10.7702 10.9375 11.2903 11.4834 11.2903 12.1562V13.7812C11.2903 14.4541 10.7702 15 10.129 15H9.35484C9.14194 15 8.96774 14.8172 8.96774 14.5938V11.3438C8.96774 11.1203 9.14194 10.9375 9.35484 10.9375ZM10.129 14.1875C10.3419 14.1875 10.5161 14.0047 10.5161 13.7812V12.1562C10.5161 11.9328 10.3419 11.75 10.129 11.75H9.74194V14.1875H10.129ZM12.0645 11.3438C12.0645 11.1203 12.2387 10.9375 12.4516 10.9375H13.6129C13.8258 10.9375 14 11.1203 14 11.3438C14 11.5672 13.8258 11.75 13.6129 11.75H12.8387V12.5625H13.6129C13.8258 12.5625 14 12.7453 14 12.9688C14 13.1922 13.8258 13.375 13.6129 13.375H12.8387V14.5938C12.8387 14.8172 12.6645 15 12.4516 15C12.2387 15 12.0645 14.8172 12.0645 14.5938V12.9688V11.3438Z" fill="#344054"/>
</svg>
