<svg width="24" height="30" viewBox="0 0 24 30" fill="none" xmlns="http://www.w3.org/2000/svg">
<path d="M22.6822 7.34162L16.1284 1.1013C15.3898 0.397018 14.3876 0.000872062 13.3422 1.69523e-07H4.1384C3.62102 -0.000147939 3.10869 0.0967549 2.63066 0.285172C2.15264 0.473589 1.7183 0.749827 1.35246 1.0981C0.986618 1.44638 0.696448 1.85986 0.498529 2.31494C0.300609 2.77001 0.198819 3.25775 0.198975 3.75028V26.2497C0.198819 26.7423 0.300609 27.23 0.498529 27.6851C0.696448 28.1401 0.986618 28.5536 1.35246 28.9019C1.7183 29.2502 2.15264 29.5264 2.63066 29.7148C3.10869 29.9032 3.62102 30.0001 4.1384 30H19.8949C20.4123 30.0001 20.9246 29.9032 21.4026 29.7148C21.8807 29.5264 22.315 29.2502 22.6808 28.9019C23.0467 28.5536 23.3369 28.1401 23.5348 27.6851C23.7327 27.23 23.8345 26.7423 23.8343 26.2497V9.99061C23.8349 9.49861 23.7334 9.01135 23.5357 8.55678C23.338 8.1022 23.0479 7.68926 22.6822 7.34162ZM13.9864 1.99632C14.2658 2.08307 14.5209 2.22916 14.7323 2.42354L21.2874 8.66499C21.4939 8.86438 21.6473 9.10786 21.735 9.37514H14.9703C14.7092 9.37455 14.459 9.27554 14.2744 9.09979C14.0898 8.92404 13.9858 8.68584 13.9852 8.43729L13.9864 1.99632ZM21.8676 26.2497C21.8666 26.7466 21.6589 27.2229 21.2898 27.5743C20.9207 27.9256 20.4204 28.1234 19.8985 28.1243H4.1384C3.61644 28.1234 3.11614 27.9256 2.74706 27.5743C2.37798 27.2229 2.17022 26.7466 2.16928 26.2497V3.75028C2.1699 3.25319 2.37753 2.77662 2.74664 2.42502C3.11575 2.07341 3.61624 1.87547 4.1384 1.87458H12.0161V8.43729C12.0161 9.18469 12.3279 9.90147 12.8831 10.43C13.4382 10.9585 14.1912 11.2554 14.9763 11.2554H21.8676V26.2497ZM6.10752 15.9379C6.10814 16.1864 6.21214 16.4246 6.39675 16.6004C6.58137 16.7761 6.83158 16.8751 7.09267 16.8757H16.9406C17.0728 16.8801 17.2045 16.8591 17.328 16.8139C17.4514 16.7688 17.5641 16.7004 17.6592 16.613C17.7543 16.5255 17.83 16.4207 17.8816 16.3048C17.9333 16.1889 17.9599 16.0643 17.9599 15.9384C17.9599 15.8125 17.9333 15.6879 17.8816 15.572C17.83 15.4561 17.7543 15.3513 17.6592 15.2639C17.5641 15.1764 17.4514 15.1081 17.328 15.0629C17.2045 15.0178 17.0728 14.9968 16.9406 15.0011H7.09267C6.83179 15.0017 6.58175 15.1006 6.39717 15.2761C6.21259 15.4516 6.10845 15.6895 6.10752 15.9379ZM16.9406 18.7559H7.09267C6.9605 18.7516 6.82876 18.7726 6.70531 18.8177C6.58186 18.8628 6.46921 18.9312 6.37409 19.0186C6.27897 19.1061 6.20333 19.2109 6.15166 19.3268C6.09999 19.4427 6.07337 19.5673 6.07337 19.6932C6.07337 19.8191 6.09999 19.9437 6.15166 20.0596C6.20333 20.1755 6.27897 20.2803 6.37409 20.3678C6.46921 20.4552 6.58186 20.5236 6.70531 20.5687C6.82876 20.6138 6.9605 20.6349 7.09267 20.6305H16.9406C17.0728 20.6349 17.2045 20.6138 17.328 20.5687C17.4514 20.5236 17.5641 20.4552 17.6592 20.3678C17.7543 20.2803 17.83 20.1755 17.8816 20.0596C17.9333 19.9437 17.9599 19.8191 17.9599 19.6932C17.9599 19.5673 17.9333 19.4427 17.8816 19.3268C17.83 19.2109 17.7543 19.1061 17.6592 19.0186C17.5641 18.9312 17.4514 18.8628 17.328 18.8177C17.2045 18.7726 17.0728 18.7516 16.9406 18.7559ZM16.9406 22.5062H7.09267C6.83746 22.5146 6.59565 22.6171 6.41824 22.7919C6.24083 22.9668 6.14167 23.2004 6.14167 23.4435C6.14167 23.6866 6.24083 23.9202 6.41824 24.0951C6.59565 24.2699 6.83746 24.3723 7.09267 24.3808H16.9406C17.0728 24.3851 17.2045 24.3641 17.328 24.319C17.4514 24.2739 17.5641 24.2055 17.6592 24.118C17.7543 24.0306 17.83 23.9258 17.8816 23.8099C17.9333 23.694 17.9599 23.5694 17.9599 23.4435C17.9599 23.3176 17.9333 23.193 17.8816 23.0771C17.83 22.9612 17.7543 22.8564 17.6592 22.7689C17.5641 22.6815 17.4514 22.6131 17.328 22.568C17.2045 22.5228 17.0728 22.5018 16.9406 22.5062Z" fill="#09154A"/>
</svg>
