<svg width="20" height="21" viewBox="0 0 20 21" fill="none" xmlns="http://www.w3.org/2000/svg">
<g clip-path="url(#clip0_3355_14907)">
<path d="M14.6667 19.3125H5.33333C4.68802 19.3125 4.16667 18.7818 4.16667 18.125V3.875C4.16667 3.21816 4.68802 2.6875 5.33333 2.6875H10V6.84375C10 7.82715 10.7839 8.625 11.75 8.625H15.8333V18.125C15.8333 18.7818 15.312 19.3125 14.6667 19.3125ZM11.75 7.4375C11.4292 7.4375 11.1667 7.17031 11.1667 6.84375V2.70605C11.2688 2.73203 11.3635 2.78398 11.4365 2.86191L15.662 7.16289C15.7385 7.24082 15.7896 7.33359 15.8151 7.4375H11.75ZM5.33333 1.5C4.04635 1.5 3 2.56504 3 3.875V18.125C3 19.435 4.04635 20.5 5.33333 20.5H14.6667C15.9536 20.5 17 19.435 17 18.125V7.58223C17 7.11094 16.8141 6.6582 16.4859 6.32422L12.2641 2.02324C11.9359 1.68926 11.4911 1.5 11.0281 1.5H5.33333ZM7.25469 11.1744C7.02865 11.4045 7.02865 11.783 7.25469 12.0131L9.17604 13.9688L7.25469 15.9244C7.02865 16.1545 7.02865 16.533 7.25469 16.7631C7.48073 16.9932 7.8526 16.9932 8.07865 16.7631L10 14.8074L11.9214 16.7631C12.1474 16.9932 12.5193 16.9932 12.7453 16.7631C12.9714 16.533 12.9714 16.1545 12.7453 15.9244L10.824 13.9688L12.7453 12.0131C12.9714 11.783 12.9714 11.4045 12.7453 11.1744C12.5193 10.9443 12.1474 10.9443 11.9214 11.1744L10 13.1301L8.07865 11.1744C7.8526 10.9443 7.48073 10.9443 7.25469 11.1744Z" fill="#344054"/>
</g>
<defs>
<clipPath id="clip0_3355_14907">
<rect width="20" height="20" fill="white" transform="translate(0 0.5)"/>
</clipPath>
</defs>
</svg>
