<svg width="20" height="20" viewBox="0 0 20 20" fill="none" xmlns="http://www.w3.org/2000/svg">
<path d="M14.9994 7V8H15.9993V7C15.9993 5.89687 15.1025 5 13.9994 5H10.3277C9.79649 5 9.28714 4.79063 8.91216 4.41563L8.08407 3.58438C7.70908 3.20938 7.19973 3 6.6685 3H2.99991C1.89684 3 1 3.89688 1 5V15C1 16.1031 1.89684 17 2.99991 17H12.9995H15.4994C16.1118 17 16.6649 16.6281 16.8931 16.0562L18.893 11.0562C19.0773 10.5937 19.0211 10.0719 18.743 9.65938C18.4649 9.24688 17.9961 9 17.4993 9H4.99983C4.38735 9 3.83425 9.37187 3.60614 9.94375L1.99996 13.9625V5C1.99996 4.44687 2.44681 4 2.99991 4H6.67163C6.93724 4 7.19036 4.10625 7.37785 4.29375L8.20594 5.12188C8.76841 5.68438 9.53088 6 10.3277 6H13.9994C14.5525 6 14.9994 6.44688 14.9994 7ZM12.9995 16H2.99991C2.8343 16 2.67805 15.9187 2.58743 15.7812C2.49681 15.6438 2.47494 15.4688 2.53743 15.3156L4.53735 10.3156C4.61234 10.125 4.79671 10 5.00295 10H17.5024C17.668 10 17.8243 10.0813 17.9149 10.2188C18.0055 10.3562 18.0274 10.5312 17.9649 10.6844L15.965 15.6844C15.8869 15.875 15.7025 16 15.4994 16H12.9995Z" fill="#344054"/>
</svg>
