<svg width="48" height="48" viewBox="0 0 48 48" fill="none" xmlns="http://www.w3.org/2000/svg">
<path d="M31.8889 27.7143H20.2778C19.6939 27.7143 19.2222 27.2355 19.2222 26.6429V19.1429C19.2222 18.5502 19.6939 18.0714 20.2778 18.0714H24.1536C24.434 18.0714 24.7012 18.1853 24.8991 18.3862L25.7733 19.2734C26.367 19.8761 27.1719 20.2143 28.013 20.2143H31.8889C32.4727 20.2143 32.9444 20.6931 32.9444 21.2857V26.6429C32.9444 27.2355 32.4727 27.7143 31.8889 27.7143ZM26.522 18.5167L25.6446 17.6261C25.2488 17.2243 24.7111 17 24.1503 17H20.2778C19.1134 17 18.1667 17.9609 18.1667 19.1429V26.6429C18.1667 27.8248 19.1134 28.7857 20.2778 28.7857H31.8889C33.0533 28.7857 34 27.8248 34 26.6429V21.2857C34 20.1038 33.0533 19.1429 31.8889 19.1429H28.013C27.4523 19.1429 26.9146 18.9185 26.5188 18.5167H26.522ZM16.0556 19.6786C16.0556 19.3839 15.8181 19.1429 15.5278 19.1429C15.2375 19.1429 15 19.3839 15 19.6786V27.7143C15 30.0815 16.8901 32 19.2222 32H30.3056C30.5958 32 30.8333 31.7589 30.8333 31.4643C30.8333 31.1696 30.5958 30.9286 30.3056 30.9286H19.2222C17.474 30.9286 16.0556 29.4888 16.0556 27.7143V19.6786Z" fill="#475467"/>
</svg>
