<svg width="24" height="24" viewBox="0 0 24 24" fill="none" xmlns="http://www.w3.org/2000/svg">
<g clip-path="url(#clip0_3355_44174)">
<path d="M10.4673 1.77187C10.486 1.70156 10.5282 1.64062 10.5798 1.59375C11.0438 1.53281 11.5173 1.5 12.0001 1.5C12.4829 1.5 12.9563 1.53281 13.4204 1.59375C13.472 1.64062 13.5095 1.70156 13.5329 1.77187L14.1751 4.00781C14.3392 4.575 14.747 4.99687 15.2298 5.23125C15.586 5.4 15.9235 5.59687 16.247 5.81719C16.6876 6.12187 17.2642 6.2625 17.836 6.12188L20.0954 5.55937C20.1657 5.54063 20.236 5.54531 20.3017 5.56875C20.5548 5.89219 20.7892 6.23438 21.0001 6.59063L21.2017 6.9375C21.3985 7.28906 21.572 7.65469 21.7267 8.02969C21.7126 8.1 21.6798 8.16563 21.6282 8.21719L20.0063 9.89062C19.5985 10.3125 19.4345 10.8797 19.4767 11.4141C19.4907 11.6062 19.5001 11.8031 19.5001 12C19.5001 12.1969 19.4907 12.3938 19.4767 12.5859C19.4345 13.1203 19.5985 13.6875 20.0063 14.1094L21.6235 15.7828C21.6751 15.8344 21.7079 15.9 21.722 15.9703C21.5673 16.3453 21.3938 16.7109 21.197 17.0672L21.0001 17.4094C20.7845 17.7656 20.5501 18.1031 20.3017 18.4313C20.236 18.4547 20.1657 18.4547 20.0954 18.4406L17.836 17.8781C17.2642 17.7375 16.6923 17.8781 16.247 18.1828C15.9235 18.4031 15.586 18.6 15.2298 18.7687C14.747 18.9984 14.3345 19.425 14.1751 19.9922L13.5329 22.2281C13.5142 22.2984 13.472 22.3594 13.4204 22.4062C12.9563 22.4672 12.4829 22.5 12.0001 22.5C11.5173 22.5 11.0438 22.4672 10.5798 22.4062C10.5282 22.3594 10.4907 22.2984 10.4673 22.2281L9.82509 19.9922C9.66103 19.425 9.25322 19.0031 8.77041 18.7687C8.41416 18.6 8.07665 18.4031 7.75322 18.1828C7.31259 17.8781 6.73603 17.7375 6.16416 17.8781L3.90478 18.4406C3.83447 18.4594 3.76416 18.4547 3.69853 18.4313C3.44541 18.1031 3.21103 17.7656 2.99541 17.4094L2.79853 17.0672C2.60166 16.7156 2.42822 16.35 2.27353 15.9703C2.28759 15.9 2.32041 15.8344 2.37197 15.7828L3.99384 14.1094C4.40166 13.6875 4.56572 13.1203 4.52353 12.5859C4.50947 12.3938 4.50009 12.1969 4.50009 12C4.50009 11.8031 4.50947 11.6062 4.52353 11.4141C4.56572 10.8797 4.40166 10.3125 3.99384 9.89062L2.37666 8.2125C2.32509 8.16094 2.29228 8.09531 2.27822 8.025C2.43291 7.65 2.60634 7.28438 2.80322 6.92813L3.00009 6.58594C3.21572 6.22969 3.45009 5.89219 3.70322 5.56406C3.76884 5.54062 3.83916 5.54063 3.90947 5.55469L6.16884 6.11719C6.74072 6.25781 7.31259 6.11719 7.75791 5.8125C8.08134 5.59219 8.41884 5.39531 8.77509 5.22656C9.25791 4.99687 9.6704 4.57031 9.82978 4.00313L10.472 1.76719L10.4673 1.77187ZM12.0001 0C11.3907 0 10.786 0.046875 10.2001 0.135938C10.1204 0.15 10.0407 0.173438 9.96572 0.210938C9.5204 0.440625 9.17353 0.848438 9.02822 1.35938L8.38603 3.59531C8.3579 3.69844 8.26884 3.80625 8.12353 3.87656C7.69697 4.07812 7.28916 4.31719 6.90478 4.57969C6.77353 4.66875 6.63291 4.69219 6.52978 4.66406L4.27041 4.10156C3.75947 3.975 3.23447 4.07344 2.81259 4.34062C2.74228 4.38281 2.68134 4.43906 2.62978 4.50469C2.29697 4.92188 1.98759 5.35781 1.71103 5.81719L1.70634 5.83125L1.50009 6.1875L1.49541 6.20156C1.24228 6.66094 1.01728 7.13437 0.825093 7.62656C0.796968 7.70156 0.778218 7.78125 0.77353 7.86094C0.750093 8.36719 0.928218 8.87344 1.29853 9.25781L2.91572 10.9312C2.99072 11.0109 3.04228 11.1375 3.02822 11.2969C3.00947 11.5312 3.00009 11.7656 3.00009 12C3.00009 12.2344 3.00947 12.4734 3.02822 12.7031C3.04228 12.8625 2.99072 12.9937 2.91572 13.0687L1.29853 14.7469C0.928218 15.1313 0.750093 15.6375 0.77353 16.1437C0.778218 16.2234 0.796968 16.3031 0.825093 16.3781C1.01728 16.8703 1.24228 17.3438 1.49541 17.8031L1.50009 17.8172L1.70634 18.1734L1.71103 18.1875C1.98759 18.6469 2.29228 19.0875 2.62978 19.5047C2.68134 19.5703 2.74228 19.6266 2.81259 19.6688C3.23447 19.9359 3.75947 20.0344 4.27041 19.9078L6.52978 19.3453C6.63291 19.3172 6.77353 19.3406 6.90478 19.4297C7.28916 19.6969 7.69697 19.9312 8.12353 20.1328C8.26884 20.2031 8.35322 20.3109 8.38603 20.4141L9.02822 22.6406C9.17353 23.1469 9.5204 23.5547 9.96572 23.7891C10.0407 23.8266 10.1157 23.8547 10.2001 23.8641C10.786 23.9531 11.3907 24 12.0001 24C12.6095 24 13.2142 23.9531 13.8001 23.8641C13.8798 23.85 13.9595 23.8266 14.0345 23.7891C14.4798 23.5594 14.8267 23.1516 14.972 22.6406L15.6142 20.4047C15.6423 20.3016 15.7313 20.1937 15.8767 20.1234C16.3032 19.9219 16.711 19.6828 17.0954 19.4203C17.2267 19.3312 17.3673 19.3078 17.4704 19.3359L19.7298 19.8984C20.2407 20.025 20.7657 19.9312 21.1876 19.6594C21.2579 19.6172 21.3188 19.5609 21.3704 19.4953C21.7032 19.0781 22.0079 18.6422 22.2845 18.1828L22.2938 18.1688L22.5001 17.8125L22.5048 17.7984C22.7579 17.3438 22.9829 16.8656 23.1751 16.3734C23.2032 16.2984 23.222 16.2188 23.2267 16.1391C23.2501 15.6328 23.072 15.1266 22.7017 14.7422L21.0845 13.0687C21.0095 12.9891 20.9579 12.8625 20.972 12.7031C20.9907 12.4688 21.0001 12.2344 21.0001 12C21.0001 11.7656 20.9907 11.5266 20.972 11.2969C20.9579 11.1375 21.0095 11.0062 21.0845 10.9312L22.7017 9.25781C23.072 8.87344 23.2501 8.36719 23.2267 7.86094C23.222 7.78125 23.2032 7.70156 23.1751 7.62656C22.9829 7.13437 22.7579 6.66094 22.5048 6.20156L22.5001 6.1875L22.2938 5.83125L22.2845 5.81719C22.0079 5.35781 21.7032 4.91719 21.3704 4.50469C21.3188 4.43906 21.2579 4.38281 21.1876 4.34062C20.7657 4.07344 20.2407 3.975 19.7298 4.10156L17.4704 4.66406C17.3673 4.69219 17.2267 4.66875 17.0954 4.57969C16.711 4.3125 16.3032 4.07812 15.8767 3.87656C15.7313 3.80625 15.647 3.69844 15.6142 3.59531L14.972 1.35938C14.8267 0.853125 14.4798 0.445312 14.0345 0.210938C13.9595 0.173438 13.8845 0.145313 13.8001 0.135938C13.2142 0.046875 12.6095 0 12.0001 0ZM9.37509 12C9.37509 11.3038 9.65165 10.6361 10.1439 10.1438C10.6362 9.65156 11.3039 9.375 12.0001 9.375C12.6963 9.375 13.364 9.65156 13.8562 10.1438C14.3485 10.6361 14.6251 11.3038 14.6251 12C14.6251 12.6962 14.3485 13.3639 13.8562 13.8562C13.364 14.3484 12.6963 14.625 12.0001 14.625C11.3039 14.625 10.6362 14.3484 10.1439 13.8562C9.65165 13.3639 9.37509 12.6962 9.37509 12ZM16.1251 12C16.1251 10.906 15.6905 9.85677 14.9169 9.08318C14.1433 8.3096 13.0941 7.875 12.0001 7.875C10.9061 7.875 9.85686 8.3096 9.08328 9.08318C8.30969 9.85677 7.87509 10.906 7.87509 12C7.87509 13.094 8.30969 14.1432 9.08328 14.9168C9.85686 15.6904 10.9061 16.125 12.0001 16.125C13.0941 16.125 14.1433 15.6904 14.9169 14.9168C15.6905 14.1432 16.1251 13.094 16.1251 12Z" fill="#475467"/>
</g>
<defs>
<clipPath id="clip0_3355_44174">
<rect width="24" height="24" fill="white"/>
</clipPath>
</defs>
</svg>
