<svg width="56" height="56" viewBox="0 0 56 56" fill="none" xmlns="http://www.w3.org/2000/svg">
<g id="hail" clip-path="url(#clip0_38_16)">
<g id="Layer_1-2">
<path id="Vector" d="M38.7 13.85C38.62 13.35 38.15 13.02 37.65 13.09C37.15 13.17 36.81 13.64 36.89 14.14C36.89 14.17 37.36 17.28 35.54 19.41C34.34 20.81 32.38 21.53 29.71 21.53C26.48 21.53 23.98 22.46 22.28 24.3C19.7 27.08 19.96 30.88 19.97 31.04C20.01 31.52 20.41 31.89 20.88 31.89C20.9 31.89 20.93 31.89 20.95 31.89C21.45 31.85 21.84 31.41 21.8 30.91C21.8 30.88 21.6 27.72 23.64 25.54C24.18 24.96 24.83 24.51 25.59 24.16V41.99C25.59 42.5 26 42.91 26.51 42.91C27.02 42.91 27.43 42.5 27.43 41.99V34.08H31.2V41.99C31.2 42.5 31.61 42.91 32.12 42.91C32.63 42.91 33.04 42.5 33.04 41.99V22.97C34.67 22.53 35.99 21.74 36.96 20.59C39.33 17.8 38.74 14 38.71 13.84L38.7 13.85ZM31.18 32.25H27.41V23.59C28.11 23.45 28.87 23.37 29.7 23.37C30.22 23.37 30.7 23.34 31.18 23.29V32.24V32.25Z" fill="#09154A"/>
<path id="Vector_2" d="M29.36 20.28C31.17 20.28 32.64 18.81 32.64 17C32.64 15.19 31.17 13.72 29.36 13.72C27.55 13.72 26.08 15.19 26.08 17C26.08 18.81 27.55 20.28 29.36 20.28ZM29.36 15.55C30.16 15.55 30.81 16.2 30.81 17C30.81 17.8 30.16 18.45 29.36 18.45C28.56 18.45 27.91 17.8 27.91 17C27.91 16.2 28.56 15.55 29.36 15.55Z" fill="#09154A"/>
<path id="Vector_3" d="M17.22 42.92H23.24V32.83H17.22V42.92ZM19.06 34.67H21.4V41.08H19.06V34.67Z" fill="#09154A"/>
</g>
</g>
<defs>
<clipPath id="clip0_38_16">
<rect width="56" height="56" fill="white"/>
</clipPath>
</defs>
</svg>
