<svg width="56" height="56" viewBox="0 0 56 56" fill="none" xmlns="http://www.w3.org/2000/svg">
<g id="hide photos" clip-path="url(#clip0_38_82)">
<g id="Layer_1-2">
<path id="Vector" d="M42.57 38.27L40.51 36.66C40.6 36.35 40.65 36.03 40.65 35.71V20.56C40.65 18.7 39.14 17.19 37.28 17.19H19.05C18.21 17.19 17.42 17.51 16.81 18.05L14.58 16.3C14.18 15.99 13.6 16.05 13.29 16.46C12.98 16.86 13.05 17.44 13.45 17.75L36.77 36.06L37.34 36.52C37.34 36.52 37.36 36.52 37.37 36.54L41.44 39.74C41.61 39.87 41.81 39.94 42.01 39.94C42.28 39.94 42.55 39.82 42.73 39.59C43.04 39.19 42.97 38.61 42.57 38.3V38.27ZM29.85 28.18L31.08 26.26L34.47 31.87L29.84 28.18H29.85ZM19.05 19.02H37.28C38.13 19.02 38.82 19.71 38.82 20.56V35.33L38.63 35.18L32.45 24.97C32.14 24.54 31.63 24.29 31.1 24.29C30.57 24.29 30.07 24.54 29.72 25.02L28.36 27.13L25.87 25.18C26.2 24.65 26.37 24.04 26.34 23.42C26.25 21.74 24.8 20.43 23.13 20.52C22.35 20.56 21.64 20.89 21.11 21.44L18.3 19.24C18.53 19.11 18.78 19.04 19.05 19.04V19.02ZM22.58 22.57C22.77 22.43 22.99 22.35 23.23 22.33C23.55 22.32 23.87 22.42 24.11 22.64C24.35 22.86 24.5 23.16 24.51 23.48C24.51 23.66 24.49 23.84 24.42 24L22.58 22.56V22.57Z" fill="#09154A"/>
<path id="Vector_2" d="M35.28 37.24H19.05C18.7 37.24 18.38 37.12 18.12 36.92L22.43 32.38L24.49 34.62C24.68 34.83 24.96 34.94 25.24 34.91C25.52 34.89 25.78 34.74 25.93 34.5L27.69 31.82C27.97 31.4 27.85 30.83 27.43 30.55C27.01 30.27 26.44 30.39 26.16 30.81L25.04 32.51L23.7 31.05C23.38 30.7 22.92 30.5 22.44 30.49C21.96 30.49 21.5 30.68 21.17 31.03L17.51 34.88V23.55C17.51 23.04 17.1 22.63 16.59 22.63C16.08 22.63 15.67 23.04 15.67 23.55V35.71C15.67 37.57 17.18 39.08 19.04 39.08H35.27C35.78 39.08 36.19 38.67 36.19 38.16C36.19 37.65 35.78 37.24 35.27 37.24H35.28Z" fill="#09154A"/>
</g>
</g>
<defs>
<clipPath id="clip0_38_82">
<rect width="56" height="56" fill="white"/>
</clipPath>
</defs>
</svg>
