<svg width="56" height="56" viewBox="0 0 56 56" fill="none" xmlns="http://www.w3.org/2000/svg">
<g id="high saturation" clip-path="url(#clip0_30_147)">
<g id="Layer_1-2">
<path id="Vector" d="M41.32 14.68C39.08 12.44 35.44 12.44 33.2 14.68L26.23 21.65L24.45 19.87C24.06 19.48 23.43 19.48 23.04 19.87C22.65 20.26 22.65 20.89 23.04 21.28L34.72 32.96C34.92 33.16 35.17 33.25 35.43 33.25C35.69 33.25 35.94 33.15 36.14 32.96C36.53 32.57 36.53 31.94 36.14 31.55L34.36 29.77L41.33 22.8C43.57 20.56 43.57 16.92 41.33 14.68H41.32ZM39.9 21.39L33 28.29L27.71 23L34.61 16.1C36.07 14.64 38.44 14.64 39.9 16.1C41.36 17.56 41.36 19.93 39.9 21.39Z" fill="#09154A"/>
<path id="Vector_2" d="M30.93 31.78L24.23 25.08C23.84 24.69 23.21 24.69 22.82 25.08L16.37 31.53C15.4 32.5 14.9 33.9 15.01 35.36L15.17 37.6C15.19 37.82 15.14 38.02 15.05 38.19L14.49 39.16L13.14 41.51C13.14 41.51 13.12 41.59 13.1 41.62C13.07 41.69 13.05 41.75 13.03 41.82C13.02 41.88 13.02 41.94 13.02 42.01C13.02 42.07 13.02 42.14 13.03 42.2C13.04 42.27 13.07 42.33 13.09 42.39C13.11 42.43 13.11 42.47 13.13 42.51C13.14 42.54 13.17 42.55 13.18 42.58C13.2 42.61 13.22 42.63 13.24 42.65C13.38 42.81 13.55 42.93 13.75 42.98C13.83 43 13.92 43.01 14 43.01C14.09 43.01 14.17 43 14.26 42.97C14.34 42.95 14.42 42.92 14.49 42.87L16.84 41.52L17.81 40.96C17.98 40.87 18.18 40.82 18.4 40.84L20.64 41C22.1 41.1 23.5 40.61 24.47 39.64L30.91 33.19C31.3 32.8 31.3 32.17 30.91 31.78H30.93Z" fill="#09154A"/>
</g>
</g>
<defs>
<clipPath id="clip0_30_147">
<rect width="56" height="56" fill="white"/>
</clipPath>
</defs>
</svg>
