<svg width="56" height="56" viewBox="0 0 56 56" fill="none" xmlns="http://www.w3.org/2000/svg">
<g id="highlight links" clip-path="url(#clip0_38_98)">
<g id="Layer_1-2">
<path id="Vector" d="M19.84 39.52C18.09 39.52 16.34 38.85 15.01 37.52C12.33 34.84 12.33 30.5 14.99 27.83L20.76 22.06C22.05 20.77 23.77 20.06 25.59 20.06C27.41 20.06 29.13 20.77 30.43 22.06C33.11 24.74 33.11 29.08 30.45 31.75C30.09 32.11 29.51 32.11 29.15 31.75C28.79 31.39 28.79 30.81 29.15 30.45C31.1 28.5 31.1 25.33 29.15 23.38C28.19 22.42 26.93 21.9 25.6 21.9C24.27 21.9 23.01 22.42 22.06 23.36L16.29 29.13C14.34 31.08 14.34 34.25 16.29 36.2C18.26 38.17 21.43 38.17 23.38 36.22L24.02 35.58C24.38 35.22 24.96 35.22 25.32 35.58C25.68 35.94 25.68 36.52 25.32 36.88L24.68 37.52C23.35 38.85 21.6 39.52 19.85 39.52H19.84Z" fill="#09154A"/>
<path id="Vector_2" d="M30.4 35.94C28.65 35.94 26.9 35.27 25.57 33.94C22.89 31.26 22.89 26.92 25.55 24.25C25.91 23.89 26.49 23.89 26.85 24.25C27.21 24.61 27.21 25.19 26.85 25.55C24.9 27.5 24.9 30.67 26.85 32.62C28.82 34.59 31.99 34.59 33.94 32.64L39.71 26.87C40.65 25.93 41.17 24.67 41.17 23.33C41.17 21.99 40.65 20.74 39.71 19.79C38.77 18.84 37.49 18.31 36.16 18.31C34.83 18.31 33.57 18.83 32.62 19.77L32.06 20.33C31.7 20.69 31.12 20.69 30.76 20.33C30.4 19.97 30.4 19.39 30.76 19.03L31.32 18.47C32.61 17.18 34.33 16.47 36.15 16.47C37.97 16.47 39.69 17.18 40.99 18.47C42.3 19.78 43.01 21.49 43.01 23.32C43.01 25.15 42.3 26.86 41.01 28.16L35.24 33.93C33.91 35.26 32.16 35.93 30.41 35.93L30.4 35.94Z" fill="#09154A"/>
</g>
</g>
<defs>
<clipPath id="clip0_38_98">
<rect width="56" height="56" fill="white"/>
</clipPath>
</defs>
</svg>
