<svg width="56" height="56" viewBox="0 0 56 56" fill="none" xmlns="http://www.w3.org/2000/svg">
<g id="highlight titles" clip-path="url(#clip0_38_22)">
<g id="Layer_1-2">
<path id="Vector" d="M16.22 15.08V20.78C16.22 21.29 16.63 21.7 17.14 21.7C17.65 21.7 18.06 21.29 18.06 20.78V16.92L27.02 16.94V34.59H21.77C21.26 34.59 20.85 35 20.85 35.51C20.85 36.02 21.26 36.43 21.77 36.43H34.11C34.62 36.43 35.03 36.02 35.03 35.51C35.03 35 34.62 34.59 34.11 34.59H28.86V16.95L37.94 16.97V20.83C37.94 21.34 38.35 21.75 38.86 21.75C39.37 21.75 39.78 21.34 39.78 20.83V15.13L16.23 15.07L16.22 15.08Z" fill="#09154A"/>
<path id="Vector_2" d="M38.34 39.08H17.92C17.41 39.08 17 39.49 17 40C17 40.51 17.41 40.92 17.92 40.92H38.34C38.85 40.92 39.26 40.51 39.26 40C39.26 39.49 38.85 39.08 38.34 39.08Z" fill="#09154A"/>
</g>
</g>
<defs>
<clipPath id="clip0_38_22">
<rect width="56" height="56" fill="white"/>
</clipPath>
</defs>
</svg>
