<svg width="34" height="25" viewBox="0 0 34 25" fill="none" xmlns="http://www.w3.org/2000/svg">
<path d="M32.9479 22.3553L30.0722 20.299C30.0881 20.1552 30.0925 20.0105 30.0852 19.8661V4.84658C30.0852 4.05007 29.7387 3.28618 29.1218 2.72296C28.5049 2.15974 27.6683 1.84333 26.7959 1.84333H7.05984C6.36464 1.85189 5.6914 2.06691 5.14195 2.45588L2.52233 0.582502C2.26382 0.410938 1.94248 0.337642 1.62597 0.378042C1.30946 0.418443 1.02246 0.569388 0.82539 0.799104C0.628321 1.02882 0.536554 1.31938 0.569407 1.60963C0.60226 1.89988 0.757171 2.16717 1.00153 2.35523L31.4259 24.128C31.6289 24.2749 31.8781 24.3587 32.1371 24.3672C32.3245 24.3672 32.5094 24.3283 32.6778 24.2532C32.8463 24.1782 32.9937 24.0692 33.1091 23.9343C33.2177 23.8233 33.3001 23.6931 33.3511 23.5517C33.4021 23.4103 33.4206 23.2609 33.4054 23.1127C33.3903 22.9645 33.3419 22.8208 33.2631 22.6904C33.1844 22.5601 33.0771 22.446 32.9479 22.3553ZM27.6138 18.5728L25.7575 17.2449L20.587 10.8249C20.5086 10.7134 20.3994 10.6226 20.2704 10.5616C20.1414 10.5007 19.9972 10.4717 19.8521 10.4775C19.7014 10.4758 19.5523 10.5062 19.4167 10.5663C19.281 10.6264 19.1627 10.7146 19.071 10.8239L18.2543 11.8379L13.9882 8.78382C13.9989 8.60092 14.0961 8.41802 14.0961 8.22105C14.0958 7.62392 13.8357 7.05135 13.3732 6.62922C12.9106 6.20709 12.2834 5.96996 11.6294 5.96996C11.2174 5.97251 10.8128 6.07044 10.4535 6.25459L7.4356 4.09009H26.8421C27.0597 4.09178 27.2679 4.17146 27.4218 4.31195C27.5756 4.45244 27.6629 4.64249 27.6648 4.84117V18.5728H27.6138ZM13.5876 17.6247L11.6815 15.4602C11.5877 15.3602 11.4713 15.2798 11.3402 15.2247C11.2092 15.1696 11.0666 15.1411 10.9223 15.1411C10.778 15.1411 10.6354 15.1696 10.5044 15.2247C10.3733 15.2798 10.2569 15.3602 10.1631 15.4602L6.28581 19.8639L6.23721 9.00027L3.7705 7.23403L3.81673 19.8629C3.81673 20.2572 3.90181 20.6478 4.06712 21.0121C4.23242 21.3765 4.47471 21.7076 4.78016 21.9865C5.0856 22.2653 5.44821 22.4866 5.8473 22.6375C6.24638 22.7884 6.67411 22.8661 7.10607 22.8661H25.6639L15.3288 15.4711L13.5876 17.6247Z" fill="#09154A"/>
</svg>
