<svg width="56" height="56" viewBox="0 0 56 56" fill="none" xmlns="http://www.w3.org/2000/svg">
<g id="light high contrast" clip-path="url(#clip0_30_125)">
<g id="Layer_1-2">
<path id="Vector" d="M28 21.81C26.77 21.81 25.58 22.17 24.55 22.86C23.52 23.55 22.73 24.51 22.26 25.64C21.78 26.79 21.66 28.03 21.91 29.22C22.14 30.42 22.73 31.52 23.61 32.4C24.48 33.27 25.58 33.86 26.79 34.1C27.19 34.18 27.6 34.22 28 34.22C28.81 34.22 29.61 34.06 30.36 33.75C31.5 33.28 32.46 32.49 33.14 31.46C33.8 30.47 34.15 29.33 34.18 28.15C34.18 28.1 34.19 28.06 34.19 28.01C34.19 26.37 33.53 24.78 32.37 23.63C31.22 22.48 29.62 21.81 27.98 21.81H28ZM32.44 28.01C32.44 28.89 32.18 29.75 31.69 30.49C31.2 31.22 30.52 31.79 29.7 32.13C28.9 32.46 28.01 32.55 27.14 32.38C26.28 32.21 25.49 31.79 24.87 31.17C24.24 30.54 23.82 29.75 23.65 28.88C23.48 28.03 23.56 27.14 23.9 26.32C24.24 25.51 24.8 24.82 25.54 24.33C26.27 23.84 27.13 23.58 28.01 23.58C29.19 23.58 30.33 24.05 31.16 24.88C31.96 25.67 32.43 26.77 32.46 27.9C32.46 27.94 32.46 27.98 32.46 28.02L32.44 28.01Z" fill="#09154A"/>
<path id="Vector_2" d="M42.86 33.44C42.83 33.25 42.76 33.07 42.65 32.9L39.26 28L42.69 23.01L42.74 22.92C42.74 22.92 42.79 22.82 42.81 22.77C42.83 22.72 42.85 22.62 42.86 22.54C42.9 22.3 42.86 22.04 42.73 21.78L42.68 21.69C42.65 21.64 42.6 21.57 42.56 21.52C42.52 21.48 42.43 21.39 42.39 21.36C42.21 21.22 42 21.13 41.82 21.1L35.97 20.03L34.89 14.18C34.89 14.18 34.85 14.02 34.83 13.98C34.8 13.88 34.7 13.7 34.63 13.62C34.52 13.48 34.38 13.37 34.2 13.28C34.06 13.2 33.83 13.11 33.52 13.14C33.48 13.14 33.45 13.14 33.42 13.15C33.19 13.19 32.99 13.27 32.89 13.36L27.99 16.74L23.14 13.4C22.94 13.24 22.72 13.15 22.48 13.14C22.25 13.12 22.02 13.16 21.82 13.26C21.64 13.35 21.48 13.47 21.36 13.62C21.22 13.8 21.13 14 21.11 14.19L20.03 20.04L14.21 21.11C13.99 21.14 13.78 21.23 13.6 21.38C13.48 21.47 13.37 21.61 13.24 21.84C13.12 22.08 13.12 22.31 13.12 22.42C13.12 22.47 13.12 22.51 13.13 22.56C13.17 22.79 13.25 22.99 13.35 23.1L16.74 28L13.39 32.86C13.24 33.05 13.15 33.28 13.13 33.51C13.11 33.74 13.15 33.97 13.28 34.22C13.38 34.4 13.49 34.53 13.61 34.63C13.79 34.77 14 34.86 14.18 34.89L20.03 35.97L21.1 41.82C21.1 41.82 21.15 42 21.16 42.03C21.18 42.1 21.27 42.25 21.31 42.31C21.36 42.39 21.5 42.53 21.57 42.59C21.61 42.62 21.64 42.64 21.68 42.67L21.77 42.72C21.83 42.75 21.89 42.78 21.95 42.8L22.05 42.83C22.13 42.85 22.22 42.87 22.3 42.87H22.4C22.4 42.87 22.5 42.87 22.55 42.86C22.78 42.82 22.97 42.74 23.08 42.65L27.98 39.27L32.82 42.61C33.02 42.77 33.25 42.86 33.49 42.87C33.53 42.87 33.57 42.87 33.61 42.87C33.8 42.87 33.99 42.82 34.19 42.72L34.28 42.67C34.33 42.64 34.4 42.59 34.44 42.55C34.48 42.51 34.57 42.42 34.6 42.38C34.74 42.2 34.83 41.99 34.86 41.81L35.94 35.96L41.89 34.86L41.96 34.84C42.15 34.79 42.28 34.7 42.38 34.63C42.52 34.51 42.65 34.36 42.74 34.17C42.76 34.13 42.8 34 42.82 33.96C42.85 33.87 42.86 33.78 42.86 33.68V33.58C42.86 33.58 42.86 33.48 42.85 33.43L42.86 33.44ZM35.05 34.34C34.69 34.4 34.4 34.69 34.34 35.06L33.29 40.78L28.5 37.48C28.2 37.27 27.81 37.28 27.51 37.48L22.72 40.79L21.68 35.08C21.62 34.72 21.33 34.43 20.97 34.37L15.25 33.31L18.55 28.52C18.76 28.22 18.76 27.82 18.55 27.52L15.24 22.74L20.96 21.69C21.32 21.63 21.61 21.34 21.67 20.97L22.72 15.25L27.51 18.55C27.81 18.75 28.2 18.75 28.5 18.55L33.3 15.24L34.35 20.96C34.41 21.32 34.7 21.61 35.06 21.67L40.78 22.72L37.68 27.22L37.48 27.5C37.27 27.8 37.26 28.2 37.48 28.51L40.79 33.3L35.06 34.35L35.05 34.34Z" fill="#09154A"/>
</g>
</g>
<defs>
<clipPath id="clip0_30_125">
<rect width="56" height="56" fill="white"/>
</clipPath>
</defs>
</svg>
