<svg width="34" height="23" viewBox="0 0 34 23" fill="none" xmlns="http://www.w3.org/2000/svg">
<path d="M31.0769 12.0527C32.545 10.7286 33.3698 8.9328 33.3698 7.0603C33.3698 5.18779 32.545 3.39198 31.0769 2.06791C29.6087 0.743851 27.6174 0 25.5412 0C23.4649 0 21.4736 0.743851 20.0055 2.06791L19.3926 2.6206L21.8562 4.84238L22.469 4.2897C22.8697 3.91293 23.3497 3.61209 23.881 3.40481C24.4122 3.19753 24.984 3.08799 25.5628 3.08261C26.1416 3.07723 26.7158 3.17611 27.2517 3.37347C27.7875 3.57082 28.2743 3.86267 28.6835 4.23191C29.0927 4.60115 29.416 5.04035 29.6345 5.52375C29.853 6.00715 29.9623 6.52503 29.956 7.04702C29.9497 7.56902 29.8279 8.08462 29.5978 8.56361C29.3676 9.04259 29.0337 9.47532 28.6157 9.83642L22.4641 15.3831C21.7257 16.0516 20.7448 16.4576 19.7013 16.5266C18.6578 16.5956 17.6217 16.323 16.7831 15.7588C15.9444 15.1945 15.3595 14.3765 15.1355 13.4548C14.9115 12.5331 15.0635 11.5694 15.5637 10.7406C15.6626 10.5718 15.7774 10.4109 15.9069 10.2598L13.1222 8.38066C12.8903 8.65656 12.6829 8.94855 12.502 9.2539C11.6101 10.7459 11.3431 12.4774 11.7495 14.1323C12.1559 15.7872 13.2088 17.255 14.7158 18.2678C16.2229 19.2806 18.0836 19.7708 19.9581 19.6489C21.8327 19.527 23.5962 18.8012 24.9265 17.6038L31.0769 12.0527ZM2.7788 10.9473C1.31064 12.2714 0.48584 14.0672 0.48584 15.9397C0.48584 17.8122 1.31064 19.608 2.7788 20.9321C4.24696 22.2561 6.23821 23 8.3145 23C10.3908 23 12.382 22.2561 13.8502 20.9321L14.463 20.3794L11.9994 18.1576L11.3866 18.7103C10.571 19.4458 9.46485 19.8591 8.31143 19.8591C7.15802 19.8591 6.05184 19.4458 5.23625 18.7103C4.42066 17.9748 3.96247 16.9771 3.96247 15.9369C3.96247 14.8967 4.42066 13.8991 5.23625 13.1636L11.3927 7.61243C12.1312 6.94393 13.1121 6.53794 14.1556 6.46895C15.1991 6.39995 16.2352 6.67257 17.0738 7.2368C17.9125 7.80102 18.4974 8.61903 18.7214 9.54076C18.9454 10.4625 18.7934 11.4261 18.2932 12.255C18.1943 12.4238 18.0795 12.5847 17.95 12.7358L20.7347 14.6149C20.9666 14.339 21.174 14.047 21.3549 13.7417C22.2494 12.2495 22.5184 10.5167 22.1127 8.86034C21.7071 7.20396 20.654 5.73458 19.1459 4.72088C17.6377 3.70718 15.7754 3.2169 13.8995 3.33967C12.0235 3.46245 10.2592 4.19009 8.92917 5.38954L2.7788 10.9473Z" fill="#09154A"/>
</svg>
