<?xml version="1.0" encoding="UTF-8"?><svg id="Layer_2" xmlns="http://www.w3.org/2000/svg" width="56" height="56" viewBox="0 0 56 56"><defs><style>.cls-ls1{fill:#09154a;}.cls-ls2{opacity:0;}.cls-ls3{fill:#f2f5fc;}</style></defs><g id="Layer_1-2"><g class="cls-ls2"><rect class="cls-ls3" width="56" height="56"/></g><path class="cls-ls1" d="M41.32,14.68c-2.24-2.24-5.88-2.24-8.12,0l-6.97,6.97-1.78-1.78c-.39-.39-1.02-.39-1.41,0-.39.39-.39,1.02,0,1.41l11.68,11.68c.2.2.45.29.71.29s.51-.1.71-.29c.39-.39.39-1.02,0-1.41l-1.78-1.78,6.97-6.97c2.24-2.24,2.24-5.88,0-8.12ZM39.9,21.39l-6.9,6.9-5.29-5.29,6.9-6.9c1.46-1.46,3.83-1.46,5.29,0,1.46,1.46,1.46,3.83,0,5.29Z"/><path class="cls-ls1" d="M29.51,31.78l-.71.71-10.61.03,6.03-6.03c.39-.39.39-1.02,0-1.41s-1.02-.39-1.41,0l-6.45,6.45c-.97.97-1.47,2.37-1.36,3.83l.16,2.24c.02.22-.03.42-.12.59l-.56.97-1.35,2.35s-.02.08-.04.11c-.03.06-.05.13-.06.19-.01.06-.01.12-.01.19,0,.06,0,.12.01.19.01.07.04.13.06.19.02.04.02.08.04.11.01.03.04.04.05.07.02.03.04.05.06.07.08.09.16.17.26.23,0,0,0,0,0,0,0,0,0,0,0,0,.07.04.15.07.23.1.09.02.17.04.26.04,0,0,0,0,0,0s0,0,0,0c.09,0,.17-.01.26-.04.08-.02.16-.05.23-.1,0,0,0,0,0,0l2.35-1.35.98-.56c.17-.1.37-.14.59-.12l2.24.16c1.45.1,2.85-.39,3.83-1.36l6.45-6.45c.39-.39.39-1.02,0-1.41s-1.02-.39-1.41,0Z"/></g></svg>
