<svg width="32" height="29" viewBox="0 0 32 29" fill="none" xmlns="http://www.w3.org/2000/svg">
<path d="M31.3723 26.6815L23.0461 19.1032C24.8992 17.0465 25.9081 14.4671 25.8999 11.8074C25.9054 9.13828 24.9152 6.54651 23.0912 4.45629C21.2673 2.36607 18.7177 0.901186 15.8598 0.30141C13.0019 -0.298366 10.0048 0.00248666 7.35926 1.15473C4.71369 2.30697 2.57626 4.24235 1.29681 6.6441C0.0173647 9.04586 -0.328319 11.7717 0.316341 14.3756C0.961001 16.9794 2.55782 19.307 4.84544 20.9773C7.13307 22.6477 9.976 23.5619 12.9089 23.5703C15.8419 23.5787 18.6911 22.6808 20.9902 21.0237L29.3177 28.602C29.4563 28.7282 29.6209 28.8283 29.8021 28.8966C29.9832 28.9649 30.1774 29 30.3735 29C30.5695 29 30.7637 28.9649 30.9448 28.8966C31.126 28.8283 31.2906 28.7282 31.4292 28.602C31.5692 28.475 31.6792 28.3233 31.7524 28.1563C31.8257 27.9893 31.8608 27.8104 31.8555 27.6306C31.8501 27.4508 31.8045 27.2739 31.7215 27.1107C31.6384 26.9475 31.5196 26.8015 31.3723 26.6815ZM12.972 20.8559C11.0055 20.8559 9.0831 20.3252 7.44799 19.331C5.81287 18.3367 4.53845 16.9235 3.78589 15.2701C3.03333 13.6167 2.83643 11.7973 3.22008 10.0421C3.60373 8.28685 4.55071 6.67455 5.94126 5.40909C7.33181 4.14363 9.10348 3.28184 11.0322 2.9327C12.961 2.58356 14.9602 2.76275 16.777 3.44761C18.5939 4.13248 20.1467 5.29225 21.2393 6.78028C22.3318 8.2683 22.915 10.0177 22.915 11.8074C22.912 14.2064 21.8635 16.5064 19.9995 18.2027C18.1355 19.8991 15.6081 20.8532 12.972 20.8559ZM17.9435 10.4498H14.4082V7.28311C14.4103 6.93134 14.2616 6.59268 13.9936 6.33915C13.7257 6.08561 13.3596 5.93721 12.9732 5.92549C12.5804 5.93351 12.206 6.07912 11.9281 6.33201C11.6503 6.58489 11.4902 6.92556 11.4814 7.28311V10.4509H7.94486C7.56223 10.4683 7.20159 10.6188 6.93753 10.8714C6.67347 11.124 6.52621 11.4593 6.52621 11.8079C6.52621 12.1566 6.67347 12.4919 6.93753 12.7445C7.20159 12.9971 7.56223 13.1476 7.94486 13.165H11.4814V16.3317C11.4793 16.6834 11.628 17.0221 11.896 17.2756C12.1639 17.5291 12.53 17.6775 12.9163 17.6893C13.1093 17.6882 13.3 17.6519 13.4773 17.5826C13.6545 17.5134 13.8148 17.4125 13.9485 17.2859C14.0823 17.1594 14.1868 17.0098 14.256 16.8459C14.3251 16.682 14.3575 16.5071 14.3513 16.3317V13.165H17.8309C18.0356 13.1763 18.2406 13.1497 18.4337 13.0868C18.6267 13.0239 18.8037 12.9261 18.9541 12.7992C19.1044 12.6723 19.2248 12.519 19.3082 12.3485C19.3916 12.178 19.4361 11.9939 19.439 11.8074C19.4399 11.6287 19.4017 11.4516 19.3268 11.2863C19.2518 11.1211 19.1416 10.9711 19.0025 10.8449C18.8634 10.7188 18.6982 10.619 18.5164 10.5513C18.3346 10.4837 18.1399 10.4495 17.9435 10.4509V10.4498Z" fill="#09154A"/>
</svg>
