<svg width="32" height="32" viewBox="0 0 30 33" fill="none" xmlns="http://www.w3.org/2000/svg">
<path d="M17.2801 0.203503C17.2797 0.201051 17.2776 0.199233 17.2752 0.19923C14.5491 0.196095 11.8639 0.842441 9.45584 2.08146C7.04648 3.32113 4.98833 5.11609 3.46257 7.30834C1.93681 9.50059 0.990219 12.0229 0.706116 14.6533C0.422014 17.2836 0.809112 19.9414 1.83334 22.3926C2.85757 24.8438 4.48752 27.0133 6.57971 28.7101C8.67191 30.4069 11.1622 31.579 13.8314 32.1232C16.5006 32.6674 19.2668 32.5671 21.8866 31.831C24.5064 31.0949 26.8994 29.7457 28.855 27.902C29.0367 27.7303 29.1569 27.5067 29.198 27.264C29.2391 27.0212 29.199 26.7721 29.0835 26.553C28.9681 26.334 28.7833 26.1566 28.5563 26.0467C28.3293 25.9369 28.0719 25.9004 27.822 25.9427C24.7884 26.4444 21.6695 25.8926 19.0142 24.3843C16.3589 22.8759 14.3374 20.5078 13.3053 17.6966C12.2733 14.8855 12.2969 11.8114 13.3721 9.01547C14.4472 6.21953 16.5049 3.88089 19.1831 2.41112C19.4033 2.28939 19.5774 2.10252 19.6801 1.87787C19.7828 1.65322 19.8086 1.4026 19.7537 1.1627C19.6989 0.922805 19.5662 0.706236 19.3753 0.544719C19.1843 0.383201 18.945 0.285219 18.6924 0.265117C18.2258 0.228628 17.7592 0.207901 17.285 0.207776C17.2826 0.207776 17.2805 0.205957 17.2801 0.203503Z" fill="#09154A"/>
</svg>
