<svg width="56" height="56" viewBox="0 0 56 56" fill="none" xmlns="http://www.w3.org/2000/svg">
<g id="mute" clip-path="url(#clip0_38_87)">
<g id="Layer_1-2">
<path id="Vector" d="M39.42 28.06L42.56 24.92C42.87 24.61 42.87 24.11 42.56 23.8C42.25 23.49 41.75 23.49 41.44 23.8L38.3 26.94L35.16 23.8C34.85 23.49 34.35 23.49 34.04 23.8C33.73 24.11 33.73 24.61 34.04 24.92L37.18 28.06L34.04 31.2C33.73 31.51 33.73 32.01 34.04 32.32C34.2 32.48 34.4 32.55 34.6 32.55C34.8 32.55 35.01 32.47 35.16 32.32L38.3 29.18L41.44 32.32C41.6 32.48 41.8 32.55 42 32.55C42.2 32.55 42.41 32.47 42.56 32.32C42.87 32.01 42.87 31.51 42.56 31.2L39.42 28.06Z" fill="#09154A"/>
<path id="Vector_2" d="M29.27 15.84H28.17C27.74 15.84 27.32 16 27 16.29L20.24 22.3C20.24 22.3 20.17 22.34 20.12 22.34H14.96C13.99 22.34 13.19 23.13 13.19 24.11V31.91C13.19 32.88 13.98 33.68 14.96 33.68H20.12C20.12 33.68 20.2 33.7 20.24 33.72L27 39.73C27.32 40.02 27.74 40.18 28.17 40.18H29.27C30.24 40.18 31.04 39.39 31.04 38.41V17.62C31.04 16.65 30.25 15.85 29.27 15.85V15.84ZM29.45 38.4C29.45 38.5 29.37 38.57 29.28 38.57H28.18C28.18 38.57 28.1 38.55 28.06 38.53L21.3 32.52C20.98 32.23 20.56 32.07 20.13 32.07H14.97C14.87 32.07 14.8 31.99 14.8 31.9V24.1C14.8 24 14.88 23.93 14.97 23.93H20.13C20.56 23.93 20.98 23.77 21.3 23.48L28.06 17.47C28.06 17.47 28.13 17.43 28.18 17.43H29.28C29.38 17.43 29.45 17.51 29.45 17.6V38.39V38.4Z" fill="#09154A"/>
</g>
</g>
<defs>
<clipPath id="clip0_38_87">
<rect width="56" height="56" fill="white"/>
</clipPath>
</defs>
</svg>
