<svg width="20" height="21" viewBox="0 0 20 21" fill="none" xmlns="http://www.w3.org/2000/svg">
<path d="M14.1772 3.79703C13.8671 3.48461 13.3657 3.48461 13.0589 3.79703L11.2479 5.61835L13.7747 8.16422L15.5825 6.34289C15.8926 6.03048 15.8926 5.52529 15.5825 5.2162L14.1772 3.79703ZM2.74033 14.1932C2.48963 14.4458 2.30819 14.7549 2.20923 15.0972L1.30536 18.1815L4.36663 17.2742C4.7064 17.1745 5.01319 16.9883 5.2639 16.7391L13.0292 8.91535L10.5024 6.36948L2.74033 14.1932ZM12.3101 3.0459C13.0325 2.31803 14.2003 2.31803 14.9227 3.0459L16.328 4.46175C17.0504 5.18961 17.0504 6.36616 16.328 7.09402L6.01272 17.4902C5.63666 17.8691 5.17483 18.1449 4.66682 18.2945L0.675298 19.4777C0.490567 19.5342 0.289341 19.481 0.154092 19.3448C0.0188417 19.2085 -0.0339387 19.0057 0.0221405 18.8196L1.1965 14.7981C1.34495 14.2863 1.62205 13.821 1.99481 13.4421L12.3101 3.0459ZM7.91611 18.4341H18.4722C18.7625 18.4341 19 18.6734 19 18.9659C19 19.2583 18.7625 19.4976 18.4722 19.4976H7.91611C7.62582 19.4976 7.38831 19.2583 7.38831 18.9659C7.38831 18.6734 7.62582 18.4341 7.91611 18.4341Z" fill="#344054"/>
</svg>
