<svg width="56" height="56" viewBox="0 0 56 56" fill="none" xmlns="http://www.w3.org/2000/svg">
<g id="picture as pdf" clip-path="url(#clip0_38_32)">
<g id="Layer_1-2">
<path id="Vector" d="M40.07 37.58H21.26C19.69 37.58 18.42 36.3 18.42 34.74V15.93C18.42 14.36 19.7 13.09 21.26 13.09H40.07C41.64 13.09 42.91 14.37 42.91 15.93V34.74C42.91 36.31 41.63 37.58 40.07 37.58ZM21.26 14.92C20.7 14.92 20.25 15.37 20.25 15.93V34.74C20.25 35.29 20.7 35.75 21.26 35.75H40.07C40.63 35.75 41.08 35.3 41.08 34.74V15.93C41.08 15.38 40.63 14.92 40.07 14.92H21.26Z" fill="#09154A"/>
<path id="Vector_2" d="M36.93 42.92H15.93C14.36 42.92 13.09 41.64 13.09 40.08V18.91C13.09 18.4 13.5 17.99 14.01 17.99C14.52 17.99 14.93 18.4 14.93 18.91V40.08C14.93 40.64 15.38 41.09 15.94 41.09H36.94C37.45 41.09 37.86 41.5 37.86 42.01C37.86 42.52 37.45 42.93 36.94 42.93L36.93 42.92Z" fill="#09154A"/>
<path id="Vector_3" d="M24.55 26.31V28.37H23.08V22.29H25.51C25.97 22.29 26.39 22.38 26.74 22.55C27.1 22.72 27.37 22.96 27.57 23.28C27.77 23.6 27.86 23.95 27.86 24.36C27.86 24.95 27.65 25.43 27.22 25.78C26.8 26.13 26.21 26.31 25.47 26.31H24.53H24.55ZM24.55 25.18H25.51C25.79 25.18 26.01 25.11 26.16 24.97C26.31 24.83 26.38 24.63 26.38 24.37C26.38 24.09 26.3 23.86 26.15 23.69C26 23.52 25.79 23.43 25.52 23.43H24.54V25.18H24.55Z" fill="#09154A"/>
<path id="Vector_4" d="M28.65 28.37V22.29H30.61C31.15 22.29 31.63 22.41 32.06 22.66C32.49 22.9 32.82 23.25 33.06 23.69C33.3 24.13 33.42 24.63 33.43 25.18V25.46C33.43 26.02 33.31 26.52 33.08 26.96C32.84 27.4 32.51 27.75 32.09 28C31.66 28.25 31.19 28.38 30.66 28.38H28.66L28.65 28.37ZM30.12 23.42V27.24H30.63C31.05 27.24 31.37 27.09 31.6 26.79C31.83 26.49 31.94 26.05 31.94 25.46V25.2C31.94 24.61 31.83 24.17 31.6 23.87C31.37 23.57 31.05 23.42 30.61 23.42H30.12Z" fill="#09154A"/>
<path id="Vector_5" d="M38.01 25.95H35.65V28.37H34.18V22.29H38.25V23.42H35.65V24.82H38.01V25.95Z" fill="#09154A"/>
</g>
</g>
<defs>
<clipPath id="clip0_38_32">
<rect width="56" height="56" fill="white"/>
</clipPath>
</defs>
</svg>
