<svg width="56" height="56" viewBox="0 0 56 56" fill="none" xmlns="http://www.w3.org/2000/svg">
<g id="reading mode" clip-path="url(#clip0_38_75)">
<g id="Layer_1-2">
<path id="Vector" d="M37.15 19.19L33.2 15.24C32.46 14.49 31.46 14.08 30.41 14.08H19.64C18.51 14.08 17.59 15 17.59 16.13V39.87C17.59 41 18.51 41.92 19.64 41.92H36.37C37.5 41.92 38.42 41 38.42 39.87V22.25C38.42 21.09 37.97 20.01 37.15 19.19ZM31.9 16.54L35.85 20.49C36.32 20.96 36.58 21.59 36.58 22.25V22.8H30.2C29.95 22.8 29.74 22.6 29.74 22.34V15.91H30.41C30.97 15.91 31.5 16.13 31.9 16.53V16.54ZM36.37 40.08H19.64C19.52 40.08 19.43 39.99 19.43 39.87V16.13C19.43 16.01 19.52 15.92 19.64 15.92H27.91V22.35C27.91 23.61 28.94 24.64 30.2 24.64H36.58V39.87C36.58 39.99 36.48 40.08 36.37 40.08Z" fill="#09154A"/>
<path id="Vector_2" d="M33.04 27.96H22.53C22.02 27.96 21.61 28.37 21.61 28.88C21.61 29.39 22.02 29.8 22.53 29.8H33.04C33.55 29.8 33.96 29.39 33.96 28.88C33.96 28.37 33.55 27.96 33.04 27.96Z" fill="#09154A"/>
<path id="Vector_3" d="M33.04 31.47H22.53C22.02 31.47 21.61 31.88 21.61 32.39C21.61 32.9 22.02 33.31 22.53 33.31H33.04C33.55 33.31 33.96 32.9 33.96 32.39C33.96 31.88 33.55 31.47 33.04 31.47Z" fill="#09154A"/>
<path id="Vector_4" d="M33.04 34.98H22.53C22.02 34.98 21.61 35.39 21.61 35.9C21.61 36.41 22.02 36.82 22.53 36.82H33.04C33.55 36.82 33.96 36.41 33.96 35.9C33.96 35.39 33.55 34.98 33.04 34.98Z" fill="#09154A"/>
</g>
</g>
<defs>
<clipPath id="clip0_38_75">
<rect width="56" height="56" fill="white"/>
</clipPath>
</defs>
</svg>
