<svg width="56" height="56" viewBox="0 0 56 56" fill="none" xmlns="http://www.w3.org/2000/svg">
<g id="reading mask" clip-path="url(#clip0_30_137)">
<g id="Layer_1-2">
<path id="Vector" d="M34 15C31.92 15 29.85 15.52 28 16.48C26.15 15.51 24.08 15 22 15C14.83 15 9 20.83 9 28C9 35.17 14.83 41 22 41C24.09 41 26.15 40.48 28 39.52C29.85 40.49 31.92 41 34 41C41.17 41 47 35.17 47 28C47 20.83 41.17 15 34 15ZM23.86 23.76H32.14C32.57 24.78 32.83 25.87 32.93 27H23.06C23.16 25.88 23.42 24.79 23.85 23.76H23.86ZM23.07 29H32.94C32.84 30.12 32.58 31.21 32.15 32.24H23.87C23.44 31.22 23.18 30.13 23.08 29H23.07ZM28 18.82C29.2 19.61 30.22 20.61 31.02 21.76H24.98C25.78 20.61 26.8 19.6 28 18.82ZM22 39C15.93 39 11 34.07 11 28C11 21.93 15.93 17 22 17C23.37 17 24.73 17.26 26.01 17.76C22.89 20.21 21 23.99 21 28C21 32.01 22.88 35.79 26.01 38.24C24.74 38.74 23.37 39 22 39ZM24.98 34.24H31.02C30.22 35.39 29.2 36.4 28 37.18C26.8 36.39 25.78 35.39 24.98 34.24Z" fill="#09154A"/>
</g>
</g>
<defs>
<clipPath id="clip0_30_137">
<rect width="56" height="56" fill="white"/>
</clipPath>
</defs>
</svg>
