<svg width="56" height="56" viewBox="0 0 56 56" fill="none" xmlns="http://www.w3.org/2000/svg">
<g id="reading guide" clip-path="url(#clip0_38_40)">
<g id="Layer_1-2">
<path id="Vector" d="M37.84 19.76C37.42 19.76 37.02 19.85 36.66 20V19.33C36.66 17.58 35.24 16.16 33.49 16.16C33 16.16 32.55 16.28 32.14 16.49C31.8 15.11 30.56 14.08 29.07 14.08C27.58 14.08 26.31 15.14 25.98 16.55C25.53 16.31 25.03 16.17 24.48 16.17C22.73 16.17 21.31 17.59 21.31 19.34V28.69L21.02 28.38C19.69 27 17.47 26.95 16.08 28.27C15.38 28.93 15 29.82 14.99 30.78C14.98 31.74 15.36 32.64 16.04 33.31L21.34 38.51C23.58 40.71 26.55 41.92 29.69 41.92C35.93 41.92 41.01 36.84 41.01 30.6V22.93C41.01 21.18 39.59 19.76 37.84 19.76ZM39.17 30.6C39.17 35.83 34.92 40.08 29.69 40.08C27.03 40.08 24.52 39.06 22.63 37.2L17.33 32C17 31.68 16.83 31.25 16.83 30.8C16.83 30.34 17.02 29.92 17.35 29.6C18.01 28.97 19.07 28.99 19.7 29.65L21.41 31.43C21.7 31.73 22.13 31.82 22.52 31.67C22.91 31.52 23.15 31.15 23.15 30.73V19.33C23.15 18.59 23.75 18 24.48 18C25.26 18 25.89 18.63 25.89 19.41V28.05C25.89 28.56 26.3 28.97 26.81 28.97C27.32 28.97 27.73 28.56 27.73 28.05V17.25C27.73 16.51 28.33 15.92 29.06 15.92C29.79 15.92 30.39 16.52 30.39 17.25V28.05C30.39 28.56 30.8 28.97 31.31 28.97C31.82 28.97 32.23 28.56 32.23 28.05V19.24C32.23 18.55 32.79 17.99 33.48 17.99C34.22 17.99 34.81 18.59 34.81 19.32V28.04C34.81 28.55 35.22 28.96 35.73 28.96C36.24 28.96 36.65 28.55 36.65 28.04V22.76C36.65 22.11 37.18 21.58 37.83 21.58C38.57 21.58 39.16 22.18 39.16 22.91V30.58L39.17 30.6Z" fill="#09154A"/>
</g>
</g>
<defs>
<clipPath id="clip0_38_40">
<rect width="56" height="56" fill="white"/>
</clipPath>
</defs>
</svg>
