<svg width="56" height="56" viewBox="0 0 56 56" fill="none" xmlns="http://www.w3.org/2000/svg">
<g id="readable font" clip-path="url(#clip0_38_2)">
<g id="Layer_1-2">
<path id="Vector" d="M26.47 36.58H22.93V19.45L28.96 19.47V22.73C28.96 23.28 29.41 23.73 29.96 23.73C30.51 23.73 30.96 23.28 30.96 22.73V18.47C30.96 17.92 30.51 17.47 29.96 17.47L13.99 17.42C13.75 17.45 13.47 17.52 13.28 17.71C13.09 17.9 12.99 18.15 12.99 18.42V22.68C12.99 23.23 13.44 23.68 13.99 23.68C14.54 23.68 14.99 23.23 14.99 22.68V19.43L20.93 19.45V36.59H17.39C16.84 36.59 16.39 37.04 16.39 37.59C16.39 38.14 16.84 38.59 17.39 38.59H26.46C27.01 38.59 27.46 38.14 27.46 37.59C27.46 37.04 27.01 36.59 26.46 36.59L26.47 36.58Z" fill="#09154A"/>
<path id="Vector_2" d="M42 26.73L29.11 26.71C28.85 26.71 28.59 26.81 28.4 27C28.21 27.19 28.11 27.44 28.11 27.71V29.9C28.11 30.45 28.56 30.9 29.11 30.9C29.66 30.9 30.11 30.45 30.11 29.9V28.71H34.53V36.58H32.79C32.24 36.58 31.79 37.03 31.79 37.58C31.79 38.13 32.24 38.58 32.79 38.58H38.23C38.78 38.58 39.23 38.13 39.23 37.58C39.23 37.03 38.78 36.58 38.23 36.58H36.53V28.72H41.01V29.92C41.01 30.47 41.46 30.92 42.01 30.92C42.56 30.92 43.01 30.47 43.01 29.92V27.73C43.01 27.18 42.56 26.73 42.01 26.73H42Z" fill="#09154A"/>
</g>
</g>
<defs>
<clipPath id="clip0_38_2">
<rect width="56" height="56" fill="white"/>
</clipPath>
</defs>
</svg>
