<svg width="25" height="25" viewBox="0 0 25 25" fill="none" xmlns="http://www.w3.org/2000/svg">
<path d="M21.6934 10.375C21.6934 10.85 21.2842 11.2321 20.7757 11.2321H16.4931H15.2695C14.7609 11.2321 14.3518 10.85 14.3518 10.375C14.3518 9.9 14.7609 9.51786 15.2695 9.51786H16.4931H18.5617L16.5695 7.65714C15.4912 6.65357 14.0344 6.08929 12.5164 6.08929C9.73649 6.08929 7.34665 7.66429 6.32188 9.91429C6.12305 10.35 5.5839 10.5536 5.1174 10.3679C4.6509 10.1821 4.43295 9.67857 4.63178 9.24286C5.93568 6.38214 8.97556 4.375 12.5164 4.375C14.5238 4.375 16.4472 5.11786 17.8658 6.44286L19.858 8.30714V6.375V6.36071V5.23214C19.858 4.75714 20.2671 4.375 20.7757 4.375C21.2842 4.375 21.6934 4.75714 21.6934 5.23214V10.375ZM4.25706 13.5179H8.53966C9.04821 13.5179 9.45736 13.9 9.45736 14.375C9.45736 14.85 9.04821 15.2321 8.53966 15.2321H6.47101L8.46318 17.0929C9.54148 18.0964 10.9983 18.6607 12.5164 18.6607C15.2924 18.6607 17.6784 17.0929 18.707 14.8464C18.9058 14.4107 19.445 14.2107 19.9115 14.3964C20.378 14.5821 20.5921 15.0857 20.3933 15.5214C19.0856 18.375 16.0533 20.375 12.5164 20.375C10.5089 20.375 8.58554 19.6321 7.16693 18.3071L5.17476 16.4429V18.375C5.17476 18.85 4.76561 19.2321 4.25706 19.2321C3.7485 19.2321 3.33936 18.85 3.33936 18.375V14.375C3.33936 13.9 3.7485 13.5179 4.25706 13.5179Z" fill="#667085"/>
</svg>
