<svg width="48" height="48" viewBox="0 0 48 48" fill="none" xmlns="http://www.w3.org/2000/svg">
<path d="M17.275 16.2166L20.6246 18.7931V20.6245H18.7934L16.2171 17.2746L17.275 16.2166ZM21.7493 20.9514C21.7493 20.9373 21.7493 20.9197 21.7493 20.9057V18.6561C21.7493 18.3924 21.6263 18.1464 21.4189 17.9882L17.7636 15.1762C17.4297 14.9161 16.9552 14.9477 16.6529 15.2465L15.247 16.6525C14.9483 16.9513 14.9166 17.4258 15.1732 17.7632L17.985 21.4189C18.1432 21.6262 18.3927 21.7493 18.6528 21.7493H20.9023C20.9163 21.7493 20.9339 21.7493 20.9479 21.7493L24.533 25.3311C23.8476 26.3856 23.9636 27.8092 24.888 28.7336L28.8245 32.6705C29.2638 33.1098 29.9773 33.1098 30.4167 32.6705L32.6661 30.4208C33.1054 29.9815 33.1054 29.2679 32.6661 28.8285L28.7296 24.8917C27.8052 23.9673 26.3817 23.8477 25.3273 24.5367L21.7493 20.9514ZM25.6858 25.6861C26.3079 25.0639 27.3131 25.0639 27.9353 25.6861L31.8718 29.6229L29.6223 31.8726L25.6858 27.9357C25.0637 27.3136 25.0637 26.3083 25.6858 25.6861ZM18.6563 29.9041C18.6563 29.755 18.5971 29.6119 18.4916 29.5065C18.3862 29.401 18.2431 29.3417 18.094 29.3417C17.9448 29.3417 17.8018 29.401 17.6963 29.5065C17.5909 29.6119 17.5316 29.755 17.5316 29.9041C17.5316 30.0533 17.5909 30.1963 17.6963 30.3018C17.8018 30.4073 17.9448 30.4665 18.094 30.4665C18.2431 30.4665 18.3862 30.4073 18.4916 30.3018C18.5971 30.1963 18.6563 30.0533 18.6563 29.9041ZM15.8164 28.245C15.2927 28.7688 15.001 29.4753 15.001 30.2135C15.001 31.7495 16.2487 32.9974 17.7847 32.9974C18.5228 32.9974 19.2292 32.7056 19.7529 32.1819L23.3837 28.5509C23.1833 28.1572 23.0568 27.7389 23.0006 27.31L18.941 31.3699C18.6352 31.6757 18.217 31.8479 17.7847 31.8479C16.8814 31.8479 16.1468 31.1168 16.1468 30.2099C16.1468 29.7776 16.319 29.3593 16.6248 29.0535L21.6474 24.034L20.8355 23.2221L15.8164 28.245ZM31.8507 20.6245C31.8507 22.1992 31.0388 23.5806 29.8121 24.3785L30.6381 25.2045C32.0686 24.1852 33 22.512 33 20.6245C33 19.7527 32.7997 18.9267 32.4482 18.1886C32.2935 17.8652 31.8683 17.8195 31.6152 18.0726L29.2287 20.4593C29.1232 20.5647 28.9791 20.6245 28.8315 20.6245H27.9353C27.626 20.6245 27.3729 20.3714 27.3729 20.0621V19.1692C27.3729 19.0216 27.4326 18.8775 27.5381 18.772L29.9246 16.3853C30.1777 16.1323 30.132 15.7069 29.8086 15.5523C29.0705 15.2008 28.2446 15.0004 27.3729 15.0004C25.4082 15.0004 23.6789 16.0057 22.6737 17.5348L23.5875 18.2378C24.3783 16.9794 25.7807 16.1463 27.3729 16.1463C27.7349 16.1463 28.0829 16.1885 28.4168 16.2693L26.7262 17.9601C26.4063 18.2799 26.2271 18.7158 26.2271 19.1692V20.0621C26.2271 21.0076 26.9933 21.7704 27.9353 21.7704H28.828C29.2814 21.7704 29.7172 21.5911 30.0371 21.2712L31.7277 19.5805C31.8085 19.9144 31.8507 20.2659 31.8507 20.6245Z" fill="#667085"/>
</svg>
