<svg width="56" height="56" viewBox="0 0 56 56" fill="none" xmlns="http://www.w3.org/2000/svg">
<g id="seizure safe" clip-path="url(#clip0_31_388)">
<g id="Layer_1-2">
<path id="Vector" d="M22.4 43C22.1 43 21.8 42.92 21.54 42.74C20.95 42.36 20.68 41.65 20.87 40.98L24.2 28.91H18.18C17.5 28.91 16.91 28.5 16.68 27.86C16.45 27.22 16.64 26.53 17.16 26.09L32.37 13.37C32.91 12.92 33.67 12.87 34.26 13.25C34.85 13.63 35.12 14.34 34.93 15.02L31.61 26.99H37.82C38.5 26.99 39.09 27.4 39.32 28.04C39.55 28.68 39.36 29.37 38.84 29.81L23.43 42.63C23.14 42.88 22.77 43 22.41 43H22.4ZM19.3 26.91H24.62C25.15 26.91 25.64 27.15 25.95 27.57C26.27 27.99 26.37 28.52 26.23 29.03L23.13 40.26L36.68 28.99H31.17C30.64 28.99 30.15 28.75 29.83 28.33C29.51 27.91 29.41 27.38 29.55 26.87L32.64 15.75L19.29 26.91H19.3Z" fill="#09154A"/>
</g>
</g>
<defs>
<clipPath id="clip0_31_388">
<rect width="56" height="56" fill="white"/>
</clipPath>
</defs>
</svg>
