<svg width="16" height="16" viewBox="0 0 16 16" fill="none" xmlns="http://www.w3.org/2000/svg">
<path d="M1.3335 12.5556C1.3335 12.7878 1.521 12.9778 1.75016 12.9778H3.4585C3.6512 13.941 4.49235 14.6667 5.50016 14.6667C6.50798 14.6667 7.34912 13.941 7.54183 12.9778H14.2502C14.4793 12.9778 14.6668 12.7878 14.6668 12.5556C14.6668 12.3233 14.4793 12.1333 14.2502 12.1333H7.54183C7.34912 11.1701 6.50798 10.4444 5.50016 10.4444C4.49235 10.4444 3.6512 11.1701 3.4585 12.1333H1.75016C1.521 12.1333 1.3335 12.3233 1.3335 12.5556ZM4.25016 12.5556C4.25016 12.2196 4.38186 11.8974 4.61628 11.6599C4.8507 11.4223 5.16864 11.2889 5.50016 11.2889C5.83168 11.2889 6.14963 11.4223 6.38405 11.6599C6.61847 11.8974 6.75016 12.2196 6.75016 12.5556C6.75016 12.8915 6.61847 13.2137 6.38405 13.4512C6.14963 13.6888 5.83168 13.8222 5.50016 13.8222C5.16864 13.8222 4.8507 13.6888 4.61628 13.4512C4.38186 13.2137 4.25016 12.8915 4.25016 12.5556ZM9.25016 8.33333C9.25016 8.16699 9.2825 8.00228 9.34531 7.8486C9.40813 7.69492 9.50021 7.55529 9.61628 7.43766C9.73235 7.32004 9.87015 7.22674 10.0218 7.16309C10.1735 7.09943 10.336 7.06667 10.5002 7.06667C10.6643 7.06667 10.8269 7.09943 10.9785 7.16309C11.1302 7.22674 11.268 7.32004 11.384 7.43766C11.5001 7.55529 11.5922 7.69492 11.655 7.8486C11.7178 8.00228 11.7502 8.16699 11.7502 8.33333C11.7502 8.49967 11.7178 8.66439 11.655 8.81807C11.5922 8.97175 11.5001 9.11138 11.384 9.229C11.268 9.34662 11.1302 9.43993 10.9785 9.50358C10.8269 9.56724 10.6643 9.6 10.5002 9.6C10.336 9.6 10.1735 9.56724 10.0218 9.50358C9.87015 9.43993 9.73235 9.34662 9.61628 9.229C9.50021 9.11138 9.40813 8.97175 9.34531 8.81807C9.2825 8.66439 9.25016 8.49967 9.25016 8.33333ZM10.5002 6.22222C9.49235 6.22222 8.65121 6.94792 8.4585 7.91111H1.75016C1.521 7.91111 1.3335 8.10111 1.3335 8.33333C1.3335 8.56556 1.521 8.75556 1.75016 8.75556H8.4585C8.65121 9.71875 9.49235 10.4444 10.5002 10.4444C11.508 10.4444 12.3491 9.71875 12.5418 8.75556H14.2502C14.4793 8.75556 14.6668 8.56556 14.6668 8.33333C14.6668 8.10111 14.4793 7.91111 14.2502 7.91111H12.5418C12.3491 6.94792 11.508 6.22222 10.5002 6.22222ZM6.3335 5.37778C6.00198 5.37778 5.68403 5.24433 5.44961 5.00678C5.21519 4.76923 5.0835 4.44705 5.0835 4.11111C5.0835 3.77517 5.21519 3.45299 5.44961 3.21544C5.68403 2.9779 6.00198 2.84444 6.3335 2.84444C6.66502 2.84444 6.98296 2.9779 7.21738 3.21544C7.4518 3.45299 7.5835 3.77517 7.5835 4.11111C7.5835 4.44705 7.4518 4.76923 7.21738 5.00678C6.98296 5.24433 6.66502 5.37778 6.3335 5.37778ZM8.37516 3.68889C8.18245 2.72569 7.34131 2 6.3335 2C5.32568 2 4.48454 2.72569 4.29183 3.68889H1.75016C1.521 3.68889 1.3335 3.87889 1.3335 4.11111C1.3335 4.34333 1.521 4.53333 1.75016 4.53333H4.29183C4.48454 5.49653 5.32568 6.22222 6.3335 6.22222C7.34131 6.22222 8.18245 5.49653 8.37516 4.53333H14.2502C14.4793 4.53333 14.6668 4.34333 14.6668 4.11111C14.6668 3.87889 14.4793 3.68889 14.2502 3.68889H8.37516Z" fill="black"/>
</svg>
