<svg width="56" height="56" viewBox="0 0 56 56" fill="none" xmlns="http://www.w3.org/2000/svg">
<g id="stop videos" clip-path="url(#clip0_38_44)">
<g id="Layer_1-2">
<path id="Vector" d="M27.87 34.63C27.44 34.63 27.1 34.96 27.09 35.38L26.98 41.21C26.98 41.63 27.31 41.98 27.73 41.99C27.73 41.99 27.74 41.99 27.75 41.99C28.17 41.99 28.51 41.66 28.52 41.24L28.63 35.41C28.63 34.99 28.3 34.64 27.88 34.63H27.87Z" fill="#09154A"/>
<path id="Vector_2" d="M22.13 32.58L17.93 36.62C17.62 36.91 17.62 37.4 17.91 37.71C18.06 37.87 18.26 37.95 18.46 37.95C18.66 37.95 18.84 37.88 18.99 37.74L23.19 33.7C23.5 33.41 23.5 32.92 23.21 32.61C22.92 32.3 22.43 32.3 22.12 32.59L22.13 32.58Z" fill="#09154A"/>
<path id="Vector_3" d="M20.6 28.62C21.02 28.62 21.36 28.29 21.37 27.87C21.37 27.45 21.04 27.1 20.62 27.09L14.79 26.98C14.35 26.99 14.02 27.31 14.01 27.73C14.01 28.15 14.34 28.5 14.76 28.51L20.59 28.62C20.59 28.62 20.6 28.62 20.61 28.62H20.6Z" fill="#09154A"/>
<path id="Vector_4" d="M19.38 17.93C19.09 17.62 18.6 17.61 18.29 17.91C17.98 18.2 17.98 18.69 18.27 19L22.31 23.2C22.46 23.36 22.66 23.44 22.86 23.44C23.06 23.44 23.24 23.37 23.39 23.23C23.7 22.94 23.7 22.45 23.41 22.14L19.37 17.94L19.38 17.93Z" fill="#09154A"/>
<path id="Vector_5" d="M28.13 21.37C28.13 21.37 28.14 21.37 28.15 21.37C28.57 21.37 28.91 21.04 28.92 20.62L29.03 14.79C29.03 14.37 28.7 14.02 28.28 14.01C27.87 14.01 27.51 14.34 27.5 14.76L27.39 20.59C27.39 21.01 27.72 21.36 28.14 21.37H28.13Z" fill="#09154A"/>
<path id="Vector_6" d="M33.33 23.64C33.52 23.64 33.71 23.57 33.86 23.43L38.06 19.39C38.37 19.1 38.37 18.61 38.08 18.3C37.79 18 37.3 17.98 36.99 18.28L32.79 22.32C32.48 22.61 32.48 23.1 32.77 23.41C32.92 23.57 33.12 23.65 33.32 23.65L33.33 23.64Z" fill="#09154A"/>
<path id="Vector_7" d="M41.25 27.49L35.42 27.38C35.01 27.38 34.65 27.71 34.64 28.13C34.64 28.55 34.97 28.9 35.39 28.91L41.22 29.02C41.22 29.02 41.23 29.02 41.24 29.02C41.66 29.02 42 28.69 42.01 28.27C42.01 27.85 41.68 27.5 41.26 27.49H41.25Z" fill="#09154A"/>
<path id="Vector_8" d="M33.68 32.8C33.39 32.49 32.9 32.49 32.59 32.78C32.28 33.07 32.28 33.56 32.57 33.87L36.61 38.07C36.76 38.23 36.96 38.31 37.16 38.31C37.36 38.31 37.54 38.24 37.69 38.1C38 37.81 38 37.32 37.71 37.01L33.67 32.81L33.68 32.8Z" fill="#09154A"/>
<path id="Vector_9" d="M27.37 29.88V26.12C27.37 25.7 27.03 25.35 26.6 25.35C26.17 25.35 25.83 25.69 25.83 26.12V29.88C25.83 30.3 26.17 30.65 26.6 30.65C27.03 30.65 27.37 30.31 27.37 29.88Z" fill="#09154A"/>
<path id="Vector_10" d="M29.39 25.35C28.97 25.35 28.62 25.69 28.62 26.12V29.88C28.62 30.3 28.96 30.65 29.39 30.65C29.82 30.65 30.16 30.31 30.16 29.88V26.12C30.16 25.7 29.82 25.35 29.39 25.35Z" fill="#09154A"/>
</g>
</g>
<defs>
<clipPath id="clip0_38_44">
<rect width="56" height="56" fill="white"/>
</clipPath>
</defs>
</svg>
