<svg width="35" height="23" viewBox="0 0 35 23" fill="none" xmlns="http://www.w3.org/2000/svg">
<path d="M17.5859 11.0893V13.5536C17.5859 13.8804 17.7199 14.1938 17.9584 14.4248C18.1969 14.6559 18.5203 14.7857 18.8576 14.7857C19.1949 14.7857 19.5183 14.6559 19.7568 14.4248C19.9953 14.1938 20.1293 13.8804 20.1293 13.5536V12.3214H24.7921V20.5357H23.0966C22.7593 20.5357 22.4358 20.6655 22.1973 20.8966C21.9589 21.1277 21.8249 21.4411 21.8249 21.7679C21.8249 22.0946 21.9589 22.408 22.1973 22.6391C22.4358 22.8702 22.7593 23 23.0966 23H29.0311C29.3684 23 29.6918 22.8702 29.9303 22.6391C30.1688 22.408 30.3028 22.0946 30.3028 21.7679C30.3028 21.4411 30.1688 21.1277 29.9303 20.8966C29.6918 20.6655 29.3684 20.5357 29.0311 20.5357H27.3355V12.3214H31.9984V13.5536C31.9984 13.8804 32.1323 14.1938 32.3708 14.4248C32.6093 14.6559 32.9328 14.7857 33.27 14.7857C33.6073 14.7857 33.9308 14.6559 34.1693 14.4248C34.4077 14.1938 34.5417 13.8804 34.5417 13.5536V11.0893C34.5417 10.7625 34.4077 10.4491 34.1693 10.218C33.9308 9.98696 33.6073 9.85714 33.27 9.85714H18.8576C18.5206 9.85801 18.1977 9.9881 17.9594 10.219C17.7211 10.4499 17.5868 10.7628 17.5859 11.0893ZM0.630127 1.23214V5.33929C0.630127 5.66607 0.764108 5.97947 1.00259 6.21054C1.24108 6.44161 1.56454 6.57143 1.90181 6.57143C2.23908 6.57143 2.56254 6.44161 2.80103 6.21054C3.03952 5.97947 3.1735 5.66607 3.1735 5.33929V2.46429H9.53192V20.5357H6.98855C6.65128 20.5357 6.32782 20.6655 6.08933 20.8966C5.85085 21.1277 5.71687 21.4411 5.71687 21.7679C5.71687 22.0946 5.85085 22.408 6.08933 22.6391C6.32782 22.8702 6.65128 23 6.98855 23H14.6187C14.9559 23 15.2794 22.8702 15.5179 22.6391C15.7564 22.408 15.8903 22.0946 15.8903 21.7679C15.8903 21.4411 15.7564 21.1277 15.5179 20.8966C15.2794 20.6655 14.9559 20.5357 14.6187 20.5357H12.0753V2.46429H18.4337V5.33929C18.4337 5.66607 18.5677 5.97947 18.8062 6.21054C19.0447 6.44161 19.3681 6.57143 19.7054 6.57143C20.0427 6.57143 20.3661 6.44161 20.6046 6.21054C20.8431 5.97947 20.9771 5.66607 20.9771 5.33929V1.23214C20.9772 1.0703 20.9444 0.910007 20.8806 0.760451C20.8167 0.610896 20.7231 0.47501 20.6049 0.360566C20.4868 0.246122 20.3466 0.15537 20.1922 0.0935C20.0379 0.03163 19.8724 -0.000143569 19.7054 4.8766e-07H1.90181C1.56454 4.8766e-07 1.24108 0.129816 1.00259 0.360888C0.764108 0.59196 0.630127 0.905359 0.630127 1.23214Z" fill="#09154A"/>
</svg>
