<svg width="56" height="56" viewBox="0 0 56 56" fill="none" xmlns="http://www.w3.org/2000/svg">
<g id="text magnifier" clip-path="url(#clip0_38_57)">
<g id="Layer_1-2">
<path id="Vector" d="M31.53 24.59H26.58V19.64C26.58 19.09 26.13 18.64 25.58 18.64C25.03 18.64 24.58 19.09 24.58 19.64V24.59H19.63C19.08 24.59 18.63 25.04 18.63 25.59C18.63 26.14 19.08 26.59 19.63 26.59H24.58V31.54C24.58 32.09 25.03 32.54 25.58 32.54C26.13 32.54 26.58 32.09 26.58 31.54V26.59H31.53C32.08 26.59 32.53 26.14 32.53 25.59C32.53 25.04 32.08 24.59 31.53 24.59Z" fill="#09154A"/>
<path id="Vector_2" d="M41.7 40.29L34.44 33.03C36.14 31.01 37.17 28.42 37.17 25.58C37.17 19.19 31.97 13.99 25.59 13.99C19.21 13.99 14.01 19.19 14.01 25.58C14.01 31.97 19.21 37.16 25.59 37.16C28.42 37.16 31.02 36.13 33.03 34.44L40.29 41.7C40.49 41.9 40.74 41.99 41 41.99C41.26 41.99 41.51 41.89 41.71 41.7C42.1 41.31 42.1 40.68 41.71 40.29H41.7ZM16 25.59C16 20.3 20.3 16 25.58 16C30.86 16 35.16 20.3 35.16 25.59C35.16 30.88 30.86 35.17 25.58 35.17C20.3 35.17 16 30.87 16 25.59Z" fill="#09154A"/>
</g>
</g>
<defs>
<clipPath id="clip0_38_57">
<rect width="56" height="56" fill="white"/>
</clipPath>
</defs>
</svg>
