<svg width="16" height="16" viewBox="0 0 16 16" fill="none" xmlns="http://www.w3.org/2000/svg">
<path d="M5.5 2H10.5C10.775 2 11 2.225 11 2.5V4H5V2.5C5 2.225 5.225 2 5.5 2ZM4 2.5V4H3.32812C2.79688 4 2.2875 4.20937 1.9125 4.58437L0.584375 5.91563C0.209375 6.29063 0 6.79688 0 7.32812V13C0 14.1031 0.896875 15 2 15H14C15.1031 15 16 14.1031 16 13V7.32812C16 6.79688 15.7906 6.2875 15.4156 5.9125L14.0875 4.58437C13.7125 4.20937 13.2031 4 12.6719 4H12V2.5C12 1.67188 11.3281 1 10.5 1H5.5C4.67188 1 4 1.67188 4 2.5ZM4.5 5H11.5H12.6719C12.9375 5 13.1906 5.10625 13.3781 5.29375L14.7063 6.62187C14.8938 6.80937 15 7.0625 15 7.32812V10H11V9C11 8.725 10.775 8.5 10.5 8.5C10.225 8.5 10 8.725 10 9V10H6V9C6 8.725 5.775 8.5 5.5 8.5C5.225 8.5 5 8.725 5 9V10H1V7.32812C1 7.0625 1.10625 6.80937 1.29375 6.62187L2.62188 5.29375C2.80938 5.10625 3.0625 5 3.32812 5H4.5ZM1 11H5V12C5 12.275 5.225 12.5 5.5 12.5C5.775 12.5 6 12.275 6 12V11H10V12C10 12.275 10.225 12.5 10.5 12.5C10.775 12.5 11 12.275 11 12V11H15V13C15 13.5531 14.5531 14 14 14H2C1.44687 14 1 13.5531 1 13V11Z" fill="#344054"/>
</svg>
