<svg xmlns="http://www.w3.org/2000/svg" width="24" height="24" viewBox="0 0 24 24" fill="none">
  <path d="M8.875 4.28571H15.125C15.4688 4.28571 15.75 4.575 15.75 4.92857V6.85714H8.25V4.92857C8.25 4.575 8.53125 4.28571 8.875 4.28571ZM7 4.92857V6.85714H6.16016C5.49609 6.85714 4.85938 7.12634 4.39062 7.60848L2.73047 9.32009C2.26172 9.80223 2 10.4531 2 11.1362V18.4286C2 19.8469 3.12109 21 4.5 21H19.5C20.8789 21 22 19.8469 22 18.4286V11.1362C22 10.4531 21.7383 9.79821 21.2695 9.31607L19.6094 7.60848C19.1406 7.12634 18.5039 6.85714 17.8398 6.85714H17V4.92857C17 3.86384 16.1602 3 15.125 3H8.875C7.83984 3 7 3.86384 7 4.92857ZM7.625 8.14286H16.375H17.8398C18.1719 8.14286 18.4883 8.27946 18.7227 8.52054L20.3828 10.2281C20.6172 10.4692 20.75 10.7946 20.75 11.1362V14.5714H15.75V13.2857C15.75 12.9321 15.4688 12.6429 15.125 12.6429C14.7812 12.6429 14.5 12.9321 14.5 13.2857V14.5714H9.5V13.2857C9.5 12.9321 9.21875 12.6429 8.875 12.6429C8.53125 12.6429 8.25 12.9321 8.25 13.2857V14.5714H3.25V11.1362C3.25 10.7946 3.38281 10.4692 3.61719 10.2281L5.27734 8.52054C5.51172 8.27946 5.82812 8.14286 6.16016 8.14286H7.625ZM3.25 15.8571H8.25V17.1429C8.25 17.4964 8.53125 17.7857 8.875 17.7857C9.21875 17.7857 9.5 17.4964 9.5 17.1429V15.8571H14.5V17.1429C14.5 17.4964 14.7812 17.7857 15.125 17.7857C15.4688 17.7857 15.75 17.4964 15.75 17.1429V15.8571H20.75V18.4286C20.75 19.1397 20.1914 19.7143 19.5 19.7143H4.5C3.80859 19.7143 3.25 19.1397 3.25 18.4286V15.8571Z" fill="#002AE6"/>
</svg>
