<svg width="30" height="30" viewBox="0 0 30 30" fill="none" xmlns="http://www.w3.org/2000/svg">
<path id="Accessibility" d="M15 29.88C6.79 29.88 0.120003 23.2 0.120003 15C0.120003 6.8 6.8 0.119995 15 0.119995C23.2 0.119995 29.88 6.8 29.88 15C29.88 23.2 23.2 29.88 15 29.88ZM15 2.02C7.84 2.02 2.02 7.85 2.02 15C2.02 22.15 7.85 27.98 15 27.98C22.15 27.98 27.98 22.15 27.98 15C27.98 7.85 22.15 2.02 15 2.02ZM12.22 24.31L12.03 24.29C11.51 24.19 11.18 23.69 11.28 23.17L12.2 18.57V14.5L12.05 14.47C11.82 14.42 11.67 14.38 11.53 14.34L8.2 13.23C7.96 13.15 7.76 12.98 7.65 12.76C7.54 12.53 7.52 12.27 7.6 12.03C7.76 11.54 8.33 11.27 8.8 11.44L12.13 12.5C13.97 13.12 16.03 13.11 17.86 12.5L21.22 11.43C21.3 11.39 21.41 11.37 21.52 11.37C21.9 11.37 22.26 11.65 22.39 12.04C22.47 12.28 22.45 12.53 22.34 12.76C22.23 12.99 22.03 13.16 21.79 13.24L18.46 14.35C18.34 14.39 18.2 14.42 18.05 14.46C17.96 14.48 17.88 14.5 17.8 14.52V18.68L18.66 23.19C18.71 23.44 18.66 23.69 18.52 23.91C18.38 24.12 18.17 24.26 17.92 24.31L17.74 24.33C17.32 24.33 16.95 24 16.86 23.57L16.08 19.69H13.92L13.14 23.57C13.05 24.01 12.67 24.33 12.22 24.33V24.31ZM14.09 17.77H15.91V14.83L15.64 14.86C15.19 14.91 14.78 14.91 14.32 14.86L14.09 14.84V17.78V17.77ZM15 11.3C13.45 11.3 12.19 10.04 12.19 8.49C12.19 6.94 13.45 5.68 15 5.68C16.55 5.68 17.81 6.94 17.81 8.49C17.81 10.04 16.55 11.3 15 11.3ZM15 7.59C14.5 7.59 14.09 8 14.09 8.5C14.09 9 14.5 9.41 15 9.41C15.5 9.41 15.91 9 15.91 8.5C15.91 8 15.5 7.59 15 7.59Z" fill="#09154A"/>
</svg>
