<svg width="31" height="33" viewBox="0 0 31 33" fill="none" xmlns="http://www.w3.org/2000/svg">
<path d="M16.6697 0.941406C15.0802 0.941406 13.7043 1.85508 13.0509 3.17897C12.6111 3.01737 12.1399 2.93035 11.6436 2.93035C9.42585 2.93035 7.62274 4.71419 7.62274 6.90825V17.1948L7.45311 17.027C5.88245 15.4732 3.338 15.4732 1.76734 17.027C0.196692 18.5809 0.196692 21.0982 1.76734 22.652L7.27719 28.103C10.2928 31.0864 14.3828 32.7646 18.6487 32.7646H19.1827H19.6854C19.7796 32.7646 19.8738 32.7584 19.9681 32.7397C25.7292 32.3544 30.3344 27.8046 30.7176 22.1051C30.7365 22.0118 30.7427 21.9186 30.7427 21.8254V10.8861C30.7427 8.69209 28.9396 6.90825 26.7219 6.90825C26.3763 6.90825 26.0371 6.95176 25.7167 7.03256V6.90825C25.7167 4.71419 23.9135 2.93035 21.6958 2.93035C21.1995 2.93035 20.7283 3.01737 20.2885 3.17897C19.6351 1.85508 18.2592 0.941406 16.6697 0.941406ZM15.6645 6.91447V6.90825V4.9193C15.6645 4.37234 16.1168 3.92483 16.6697 3.92483C17.2226 3.92483 17.6749 4.37234 17.6749 4.9193V6.90204V6.90825V15.3613C17.6749 16.1879 18.3472 16.853 19.1827 16.853C20.0183 16.853 20.6906 16.1879 20.6906 15.3613V6.90825C20.6906 6.90825 20.6906 6.90825 20.6906 6.90204C20.6906 6.35507 21.1429 5.90756 21.6958 5.90756C22.2487 5.90756 22.701 6.35507 22.701 6.90204V10.3765V10.3827V15.3551C22.701 16.1817 23.3732 16.8468 24.2088 16.8468C25.0444 16.8468 25.7167 16.1817 25.7167 15.3551V10.8924V10.8861C25.7167 10.3392 26.169 9.89167 26.7219 9.89167C27.2747 9.89167 27.7271 10.3392 27.7271 10.8861V21.6327C27.7208 21.67 27.7208 21.7135 27.7145 21.7508C27.5009 26.083 23.9889 29.5574 19.61 29.7687C19.5723 29.7687 19.5283 29.7749 19.4906 29.7812H19.1827H18.6487C15.1807 29.7812 11.8572 28.42 9.407 25.9959L3.89715 20.5388C3.50763 20.1534 3.50763 19.5194 3.89715 19.1341C4.28667 18.7487 4.9275 18.7487 5.31702 19.1341L8.06252 21.8502C8.49602 22.2791 9.14313 22.4034 9.70856 22.1734C10.274 21.9435 10.6384 21.3965 10.6384 20.7936V6.90825C10.6384 6.36129 11.0907 5.91378 11.6436 5.91378C12.1965 5.91378 12.6488 6.35507 12.6488 6.90204V15.3613C12.6488 16.1879 13.3211 16.853 14.1567 16.853C14.9922 16.853 15.6645 16.1879 15.6645 15.3613V6.91447Z" fill="#09154A"/>
</svg>
