<svg width="56" height="56" viewBox="0 0 56 56" fill="none" xmlns="http://www.w3.org/2000/svg">
<g id="vision impaired" clip-path="url(#clip0_31_397)">
<g id="Layer_1-2">
<path id="Vector" d="M37.47 39.76H34.77C31.72 39.76 29.24 37.28 29.24 34.23V31.13C29.24 30.09 29.89 29.15 30.87 28.8C33.03 28.03 37.34 27.03 41.97 29.03C42.59 29.3 42.99 29.91 42.99 30.59V34.22C42.99 37.27 40.51 39.75 37.46 39.75L37.47 39.76ZM31.55 30.69C31.37 30.75 31.25 30.93 31.25 31.14V34.24C31.25 36.19 32.83 37.77 34.78 37.77H37.48C39.43 37.77 41.01 36.19 41.01 34.24V30.8C36.93 29.12 33.05 30.16 31.56 30.69H31.55Z" fill="#09154A"/>
<path id="Vector_2" d="M21.23 39.76H18.53C15.48 39.76 13 37.28 13 34.23V30.59C13 29.9 13.41 29.29 14.04 29.03C15.36 28.49 20.05 26.87 25.13 28.79C26.1 29.16 26.75 30.09 26.75 31.12V34.23C26.75 37.28 24.27 39.76 21.22 39.76H21.23ZM15 30.8V34.23C15 36.18 16.58 37.76 18.53 37.76H21.23C23.18 37.76 24.76 36.18 24.76 34.23V31.12C24.76 30.92 24.63 30.73 24.43 30.66C20.25 29.08 16.37 30.27 15 30.8Z" fill="#09154A"/>
<path id="Vector_3" d="M42 31.15C41.55 31.15 41.14 30.84 41.03 30.39L38.33 19.31C38.23 18.91 37.98 18.58 37.61 18.4C37.24 18.21 36.83 18.19 36.45 18.35L33.54 19.54C33.03 19.75 32.44 19.5 32.24 18.99C32.03 18.48 32.28 17.89 32.79 17.69L35.7 16.5C36.62 16.13 37.65 16.17 38.53 16.62C39.41 17.07 40.05 17.88 40.28 18.84L42.98 29.92C43.11 30.46 42.78 31 42.24 31.13C42.16 31.15 42.08 31.16 42 31.16V31.15Z" fill="#09154A"/>
<path id="Vector_4" d="M14 31.15C13.92 31.15 13.84 31.15 13.76 31.12C13.22 30.99 12.89 30.45 13.02 29.91L15.72 18.83C15.95 17.87 16.59 17.06 17.47 16.61C18.35 16.16 19.38 16.12 20.3 16.49L23.21 17.68C23.72 17.89 23.97 18.47 23.76 18.98C23.55 19.49 22.97 19.74 22.46 19.53L19.55 18.34C19.17 18.18 18.75 18.2 18.39 18.39C18.02 18.58 17.77 18.9 17.67 19.3L14.97 30.38C14.86 30.84 14.45 31.14 14 31.14V31.15Z" fill="#09154A"/>
<path id="Vector_5" d="M30.25 32.18C30.15 32.18 30.05 32.16 29.95 32.13C27.94 31.49 26.12 32.11 26.1 32.12C25.58 32.3 25.01 32.03 24.82 31.52C24.63 31 24.9 30.43 25.42 30.24C25.52 30.2 27.87 29.37 30.56 30.23C31.09 30.4 31.38 30.96 31.21 31.49C31.07 31.91 30.68 32.19 30.26 32.19L30.25 32.18Z" fill="#09154A"/>
</g>
</g>
<defs>
<clipPath id="clip0_31_397">
<rect width="56" height="56" fill="white"/>
</clipPath>
</defs>
</svg>
